<svg width="40" height="40" viewBox="0 0 40 40" fill="none" xmlns="http://www.w3.org/2000/svg">
    <circle cx="20" cy="20" r="19" fill="#BA0000" stroke="white" stroke-width="2"/>
    <path fill-rule="evenodd" clip-rule="evenodd" d="M24.1667 14.5H27C27.9167 14.5 28.6667 15.25 28.6667 16.1667V25.3333C28.6667 26.25 27.9167 27 27 27H13.6667C12.75 27 12 26.25 12 25.3333V16.1667C12 15.25 12.75 14.5 13.6667 14.5H16.5C16.5 14.4166 17.75 12.8333 17.75 12.8333C18.0001 12.3333 18.5833 12 19.1667 12H21.5C22.0834 12 22.5834 12.3333 22.9167 12.8333C22.9167 12.8333 24.1667 14.4166 24.1667 14.5ZM13.6667 25.3333H27V16.1667H24.1667C23.5833 16.1667 23.0833 15.8334 22.75 15.3333C22.75 15.3333 21.5 13.75 21.5 13.6667H19.1667C19.1667 13.75 17.9167 15.3333 17.9167 15.3333C17.6666 15.8334 17.0834 16.1667 16.5 16.1667H13.6667V25.3333ZM16.5833 20.7505C16.5833 18.6672 18.2499 17.0005 20.3333 17.0005C22.4166 17.0005 24.0833 18.6672 24.0833 20.7505C24.0833 22.8338 22.4166 24.5005 20.3333 24.5005C18.2499 24.5005 16.5833 22.8338 16.5833 20.7505ZM18.2499 20.7505C18.2499 21.9171 19.1666 22.8338 20.3333 22.8338C21.4999 22.8338 22.4166 21.9171 22.4166 20.7505C22.4166 19.5839 21.4999 18.6672 20.3333 18.6672C19.1666 18.6672 18.2499 19.5839 18.2499 20.7505Z" fill="white"/>
</svg>
