<svg width="12" height="12" viewBox="0 0 12 12" fill="none" xmlns="http://www.w3.org/2000/svg">
    <path d="M8.51516 5.73482L4.76516 1.98482C4.71271 1.93238 4.64589 1.89667 4.57315 1.8822C4.50041 1.86774 4.42501 1.87517 4.35649 1.90355C4.28797 1.93193 4.2294 1.98 4.1882 2.04167C4.14699 2.10334 4.125 2.17584 4.125 2.25001V9.75001C4.125 9.82417 4.147 9.89667 4.1882 9.95834C4.2294 10.02 4.28797 10.0681 4.35649 10.0965C4.42501 10.1248 4.50041 10.1323 4.57315 10.1178C4.64589 10.1033 4.71271 10.0676 4.76516 10.0152L8.51516 6.26519C8.54998 6.23037 8.57761 6.18902 8.59646 6.14352C8.6153 6.09802 8.62501 6.04926 8.62501 6.00001C8.62501 5.95076 8.6153 5.90199 8.59646 5.85649C8.57761 5.81099 8.54998 5.76965 8.51516 5.73482Z" fill="#929CA6"/>
</svg>
