<svg width="16" height="16" viewBox="0 0 16 16" fill="none" xmlns="http://www.w3.org/2000/svg">

    <path
        d="M8 14.5C6.71442 14.5 5.45772 14.1188 4.3888 13.4046C3.31988 12.6903 2.48676 11.6752 1.99479 10.4874C1.50282 9.29972 1.37409 7.99279 1.6249 6.73191C1.8757 5.47104 2.49477 4.31285 3.40381 3.40381C4.31285 2.49476 5.47104 1.8757 6.73192 1.6249C7.99279 1.37409 9.29973 1.50281 10.4874 1.99478C11.6752 2.48675 12.6903 3.31987 13.4046 4.38879C14.1188 5.45771 14.5 6.71442 14.5 8C14.498 9.7233 13.8126 11.3754 12.594 12.594C11.3754 13.8125 9.7233 14.498 8 14.5ZM10.4746 8.02539C10.4282 7.97895 10.3731 7.94211 10.3124 7.91698C10.2518 7.89184 10.1868 7.87891 10.1211 7.87891C10.0554 7.87891 9.99042 7.89184 9.92976 7.91698C9.86911 7.94211 9.814 7.97895 9.76758 8.02539L8.5 9.29297V5.5C8.5 5.36739 8.44732 5.24021 8.35356 5.14645C8.25979 5.05268 8.13261 5 8 5C7.86739 5 7.74022 5.05268 7.64645 5.14645C7.55268 5.24021 7.5 5.36739 7.5 5.5V9.29297L6.23242 8.02539C6.13863 7.9318 6.01152 7.87927 5.87902 7.87934C5.74652 7.87941 5.61946 7.93207 5.52577 8.02577C5.43208 8.11946 5.37941 8.24651 5.37934 8.37902C5.37927 8.51152 5.4318 8.63863 5.52539 8.73242L7.64588 10.8529C7.73988 10.9467 7.86723 10.9993 8 10.9993C8.13277 10.9993 8.26012 10.9467 8.35413 10.8529L10.4746 8.73242C10.5211 8.68601 10.5579 8.6309 10.583 8.57024C10.6082 8.50958 10.6211 8.44457 10.6211 8.37891C10.6211 8.31325 10.6082 8.24823 10.583 8.18757C10.5579 8.12692 10.5211 8.07181 10.4746 8.02539Z"
        fill="black" />
</svg>
