<svg width="16" height="16" viewBox="0 0 16 16" fill="none" xmlns="http://www.w3.org/2000/svg">
    <path
        d="M8 1.5C6.71442 1.5 5.45772 1.88122 4.3888 2.59545C3.31988 3.30968 2.48676 4.32484 1.99479 5.51256C1.50282 6.70028 1.37409 8.00721 1.6249 9.26809C1.8757 10.529 2.49477 11.6872 3.40381 12.5962C4.31285 13.5052 5.47104 14.1243 6.73192 14.3751C7.99279 14.6259 9.29973 14.4972 10.4874 14.0052C11.6752 13.5132 12.6903 12.6801 13.4046 11.6112C14.1188 10.5423 14.5 9.28558 14.5 8C14.498 6.2767 13.8126 4.62456 12.594 3.40601C11.3754 2.18745 9.7233 1.50199 8 1.5ZM10.4746 7.97461C10.4282 8.02105 10.3731 8.05789 10.3124 8.08302C10.2518 8.10816 10.1868 8.12109 10.1211 8.12109C10.0554 8.12109 9.99042 8.10816 9.92976 8.08302C9.86911 8.05789 9.814 8.02105 9.76758 7.97461L8.5 6.70703V10.5C8.5 10.6326 8.44732 10.7598 8.35356 10.8536C8.25979 10.9473 8.13261 11 8 11C7.86739 11 7.74022 10.9473 7.64645 10.8536C7.55268 10.7598 7.5 10.6326 7.5 10.5V6.70703L6.23242 7.97461C6.13863 8.0682 6.01152 8.12073 5.87902 8.12066C5.74652 8.12059 5.61946 8.06793 5.52577 7.97423C5.43208 7.88054 5.37941 7.75349 5.37934 7.62098C5.37927 7.48848 5.4318 7.36137 5.52539 7.26758L7.64588 5.1471C7.73988 5.05334 7.86723 5.00069 8 5.00069C8.13277 5.00069 8.26012 5.05334 8.35413 5.1471L10.4746 7.26758C10.5211 7.31399 10.5579 7.3691 10.583 7.42976C10.6082 7.49042 10.6211 7.55543 10.6211 7.62109C10.6211 7.68675 10.6082 7.75177 10.583 7.81243C10.5579 7.87308 10.5211 7.92819 10.4746 7.97461Z"
        fill="black" />
</svg>
