<svg width="10" height="10" viewBox="0 0 10 10" fill="none" xmlns="http://www.w3.org/2000/svg">
    <path d="M9.04685 5.98645H6.30484C6.26312 5.98645 6.2218 5.99467 6.18325 6.01064C6.1447 6.0266 6.10967 6.05001 6.08016 6.07952C6.05065 6.10902 6.02725 6.14405 6.01128 6.1826C5.99531 6.22115 5.98709 6.26247 5.98709 6.3042V9.04555C5.98709 9.08728 5.97888 9.12859 5.96291 9.16715C5.94694 9.2057 5.92353 9.24073 5.89402 9.27023C5.86452 9.29974 5.82949 9.32314 5.79094 9.33911C5.75239 9.35508 5.71107 9.3633 5.66934 9.3633H4.33123C4.24696 9.3633 4.16614 9.32982 4.10655 9.27023C4.04696 9.21064 4.01348 9.12982 4.01348 9.04555V6.3042C4.01348 6.26247 4.00526 6.22115 3.9893 6.1826C3.97333 6.14405 3.94992 6.10902 3.92041 6.07952C3.89091 6.05001 3.85588 6.0266 3.81733 6.01064C3.77878 5.99467 3.73746 5.98645 3.69573 5.98645H0.953068C0.868795 5.98645 0.787972 5.95297 0.728382 5.89338C0.668792 5.83379 0.635315 5.75297 0.635315 5.6687V4.33059C0.635315 4.28886 0.643535 4.24754 0.659503 4.20899C0.675472 4.17044 0.698876 4.13541 0.728382 4.1059C0.757888 4.0764 0.792916 4.05299 0.831468 4.03702C0.870019 4.02106 0.91134 4.01284 0.953068 4.01284H3.69573C3.73746 4.01284 3.77878 4.00462 3.81733 3.98865C3.85588 3.97268 3.89091 3.94928 3.92041 3.91977C3.94992 3.89026 3.97333 3.85523 3.9893 3.81668C4.00526 3.77813 4.01348 3.73681 4.01348 3.69509V0.953738C4.01348 0.869465 4.04696 0.788643 4.10655 0.729054C4.16614 0.669464 4.24696 0.635986 4.33123 0.635986H5.66934C5.75362 0.635986 5.83443 0.669464 5.89402 0.729054C5.95361 0.788643 5.98709 0.869465 5.98709 0.953738V3.69574C5.98709 3.73747 5.99531 3.77879 6.01128 3.81734C6.02725 3.85589 6.05065 3.89092 6.08016 3.92043C6.10967 3.94993 6.1447 3.97334 6.18325 3.98931C6.2218 4.00528 6.26312 4.01349 6.30484 4.01349H9.04685C9.08858 4.01349 9.1299 4.02171 9.16845 4.03768C9.207 4.05365 9.24203 4.07706 9.27153 4.10656C9.30104 4.13607 9.32445 4.1711 9.34041 4.20965C9.35638 4.2482 9.3646 4.28952 9.3646 4.33125V5.66935C9.36443 5.75351 9.33087 5.83417 9.2713 5.89361C9.21173 5.95306 9.13101 5.98645 9.04685 5.98645Z" fill="#1A2734"/>
</svg>
