<svg width="40" height="40" viewBox="0 0 40 40" fill="none" xmlns="http://www.w3.org/2000/svg">
    <g clip-path="url(#clip0)">
        <path d="M37.4172 26.4145L9.90721 31.2653C8.20753 31.565 6.58674 30.4301 6.28706 28.7305L3.25893 11.5573C2.95924 9.85757 4.09417 8.23679 5.79378 7.93711L33.3038 3.08632C35.0035 2.78664 36.6242 3.92156 36.9239 5.62117L39.9521 22.7944C40.2518 24.494 39.1169 26.1148 37.4172 26.4145Z" fill="#3555A2"/>
        <path d="M33.3035 3.08632L19.5485 5.51172L23.6618 28.84L37.4168 26.4146C39.1165 26.1149 40.2514 24.4941 39.9517 22.7945L36.9235 5.62125C36.6239 3.92156 35.0031 2.78664 33.3035 3.08632Z" fill="#1B3555"/>
        <path d="M30.4688 36.9616H3.125C1.39914 36.9616 0 35.5625 0 33.8366V16.8274C0 15.1015 1.39914 13.7024 3.125 13.7024H30.4688C32.1946 13.7024 33.5938 15.1015 33.5938 16.8274V33.8366C33.5938 35.5625 32.1946 36.9616 30.4688 36.9616Z" fill="#53D8E3"/>
        <path d="M30.4688 13.7024H16.7969V36.9616H30.4688C32.1946 36.9616 33.5938 35.5625 33.5938 33.8366V16.8274C33.5938 15.1015 32.1946 13.7024 30.4688 13.7024Z" fill="#18A8C9"/>
        <path d="M0 19.0188H33.5938V24.3352H0V19.0188Z" fill="#ECF6FD"/>
        <path d="M9.30334 31.8022H3.98694C3.33975 31.8022 2.81506 32.3269 2.81506 32.9741C2.81506 33.6213 3.33975 34.146 3.98694 34.146H9.30334C9.95053 34.146 10.4752 33.6213 10.4752 32.9741C10.4752 32.3269 9.95053 31.8022 9.30334 31.8022Z" fill="#EAF6FF"/>
        <path d="M16.7969 19.0188H33.5938V24.3352H16.7969V19.0188Z" fill="#D6E8FE"/>
    </g>
    <defs>
        <clipPath id="clip0">
            <rect width="40" height="40" fill="white"/>
        </clipPath>
    </defs>
</svg>
