<svg width="39" height="31" viewBox="0 0 39 31" fill="none" xmlns="http://www.w3.org/2000/svg">
    <g clip-path="url(#clip0)">
        <path d="M39 4.78127L39 26.2177C39 27.486 38.4852 28.7024 37.5689 29.5993C36.6526 30.4961 35.4099 31 34.1141 31L4.88594 31C3.59011 31 2.34735 30.4961 1.43106 29.5993C0.514767 28.7024 -1.53601e-07 27.486 -2.09042e-07 26.2177L-1.14606e-06 4.78127C0.000285255 3.5131 0.515179 2.29697 1.43144 1.40034C2.3477 0.50371 3.59029 1.75041e-06 4.88594 1.69378e-06L34.1141 4.16176e-07C35.4097 3.59541e-07 36.6523 0.503708 37.5686 1.40034C38.4848 2.29697 38.9997 3.5131 39 4.78127Z" fill="#FFCC3B"/>
        <path d="M39 4.78127L39 26.2177C39 27.486 38.4852 28.7024 37.5689 29.5993C36.6526 30.4961 35.4099 31 34.1141 31L4.88594 31C3.59011 31 2.34735 30.4961 1.43106 29.5993C0.514767 28.7024 -1.53601e-07 27.486 -2.09042e-07 26.2177L-1.14606e-06 4.78127C0.000285255 3.5131 0.515179 2.29697 1.43144 1.40034C2.3477 0.50371 3.59029 1.75041e-06 4.88594 1.69378e-06L34.1141 4.16176e-07C35.4097 3.59541e-07 36.6523 0.503708 37.5686 1.40034C38.4848 2.29697 38.9997 3.5131 39 4.78127Z" fill="#FFCC3B"/>
        <path d="M-6.74777e-08 4.78124L0 6.32495L38.9968 6.32495L38.9968 4.78124C38.9965 3.51307 38.4816 2.29694 37.5653 1.40031C36.6491 0.50368 35.4065 -2.82505e-05 34.1108 -2.81939e-05L4.88594 -2.69165e-05C3.59029 -2.68598e-05 2.3477 0.503682 1.43144 1.40031C0.51518 2.29694 0.000286334 3.51307 -6.74777e-08 4.78124Z" fill="#EFB525"/>
        <path d="M13.2092 18.2337L13.2092 12.762C13.2094 12.4751 13.1518 12.1911 13.0397 11.9261C12.9277 11.6611 12.7634 11.4202 12.5562 11.2174C12.3491 11.0145 12.1031 10.8536 11.8324 10.7438C11.5617 10.634 11.2715 10.5775 10.9785 10.5775L-4.30194e-07 10.5775L0 20.4192L10.9785 20.4192C11.2716 20.4191 11.5618 20.3624 11.8325 20.2525C12.1032 20.1426 12.3492 19.9816 12.5563 19.7786C12.7634 19.5757 12.9277 19.3348 13.0397 19.0697C13.1518 18.8046 13.2094 18.5205 13.2092 18.2337Z" fill="#FFD876"/>
        <path d="M25.7908 12.7641L25.7908 18.2337C25.7908 18.8128 26.0258 19.3681 26.4441 19.7776C26.8625 20.1871 27.4299 20.4171 28.0215 20.4171L39 20.4171L39 10.5776L28.0226 10.5776C27.7293 10.5774 27.4388 10.6339 27.1678 10.7438C26.8968 10.8536 26.6507 11.0147 26.4434 11.2178C26.2361 11.4209 26.0717 11.662 25.9597 11.9274C25.8478 12.1927 25.7903 12.477 25.7908 12.7641Z" fill="#FFD876"/>
        <path d="M15.7445 0.00081375L15.7445 1.97803C15.7452 2.04478 15.7261 2.11029 15.6895 2.16659C15.6528 2.2229 15.6003 2.26759 15.5382 2.29523C14.1381 2.90763 12.9489 3.90338 12.114 5.16241C11.2791 6.42144 10.8341 7.89 10.8327 9.391L10.8327 9.76636L-9.2828e-07 9.76636L-8.56966e-07 11.3978L10.9785 11.3978C11.3487 11.3984 11.7035 11.5426 11.9651 11.7989C12.2268 12.0552 12.3739 12.4026 12.3742 12.765L12.3742 18.2346C12.3736 18.5967 12.2264 18.9438 11.9648 19.1999C11.7031 19.456 11.3485 19.6001 10.9785 19.6006L-4.9841e-07 19.6006L-4.26866e-07 21.2374L10.8359 21.2374L10.8359 21.6117C10.8374 23.1128 11.2824 24.5815 12.1173 25.8407C12.9522 27.0999 14.1414 28.0958 15.5415 28.7085C15.6036 28.736 15.6562 28.7807 15.6929 28.837C15.7295 28.8934 15.7486 28.9589 15.7478 29.0257L15.7478 31.0029L17.4168 31.0029L17.4168 29.0194C17.4167 28.6374 17.304 28.2635 17.092 27.9427C16.8801 27.622 16.5779 27.368 16.222 27.2113C15.1161 26.7278 14.1768 25.9415 13.5172 24.9472C12.8577 23.9528 12.5061 22.793 12.5049 21.6075L12.5049 20.8324C12.9719 20.5699 13.3601 20.1915 13.6303 19.7355C13.9006 19.2794 14.0433 18.7617 14.0442 18.2346L14.0442 12.7628C14.0434 12.2355 13.9006 11.7177 13.6302 11.2616C13.3597 10.8055 12.9712 10.4273 12.5038 10.165L12.5038 9.38995C12.5053 8.20449 12.857 7.04475 13.5165 6.05046C14.176 5.05618 15.1152 4.2698 16.2209 3.78607C16.5769 3.6298 16.8792 3.37605 17.0912 3.05543C17.3032 2.7348 17.4159 2.361 17.4157 1.97909L17.4157 0.00187226L15.7445 0.00187233L15.7445 0.00081375Z" fill="#EFB525"/>
        <path d="M15.5414 2.29228C13.7187 3.08953 12.2693 4.52924 11.4819 6.32495L13.3453 6.32495C14.0064 5.20297 15.0134 4.31466 16.222 3.78735C16.578 3.63107 16.8802 3.37733 17.0922 3.0567C17.3042 2.73608 17.4169 2.36227 17.4167 1.98036L17.4167 0.00314496L15.7445 0.00314503L15.7445 1.98036C15.7444 2.04587 15.7253 2.11 15.6893 2.16524C15.6534 2.22048 15.6021 2.26455 15.5414 2.29228Z" fill="#E59D0E"/>
        <path d="M21.5833 5.91278e-05L21.5833 1.97728C21.5834 2.35927 21.6963 2.73311 21.9084 3.05372C22.1206 3.37433 22.423 3.62804 22.7791 3.78427C23.8847 4.26804 24.8238 5.05447 25.4831 6.04876C26.1425 7.04305 26.4939 8.20277 26.4952 9.38814L26.4952 10.1642C26.028 10.4271 25.6398 10.8059 25.3698 11.2623C25.0997 11.7187 24.9573 12.2368 24.9569 12.7642L24.9569 18.2338C24.9574 18.7612 25.0999 19.2792 25.3699 19.7357C25.64 20.1921 26.0281 20.5708 26.4952 20.8338L26.4952 21.6088C26.4942 22.7943 26.1429 23.9541 25.4835 24.9484C24.8241 25.9428 23.8849 26.7291 22.7791 27.2127C22.4234 27.3692 22.1214 27.6228 21.9093 27.9431C21.6971 28.2635 21.584 28.6369 21.5833 29.0186L21.5833 30.9958L23.2534 30.9958L23.2534 29.0186C23.2526 28.9519 23.2716 28.8863 23.3083 28.83C23.3449 28.7736 23.3975 28.729 23.4597 28.7014C24.8592 28.0895 26.0481 27.0947 26.8833 25.8367C27.7186 24.5787 28.1645 23.1112 28.1674 21.6109L28.1674 21.2366L39.0022 21.2366L39.0022 19.602L28.0226 19.602C27.6521 19.6017 27.2968 19.4574 27.0349 19.2009C26.773 18.9443 26.6259 18.5965 26.6259 18.2338L26.6259 12.7621C26.6262 12.3996 26.7734 12.052 27.0353 11.7957C27.2972 11.5394 27.6523 11.3952 28.0226 11.395L39.0001 11.395L39.0001 9.76138L28.1674 9.76138L28.1674 9.38603C28.1658 7.88505 27.7208 6.41655 26.8859 5.15754C26.051 3.89853 24.8619 2.90276 23.4619 2.29025C23.3998 2.26261 23.3472 2.21792 23.3106 2.16161C23.274 2.1053 23.2548 2.0398 23.2555 1.97305L23.2555 -0.00416763L21.5833 5.91278e-05Z" fill="#EFB525"/>
        <path d="M22.7791 3.78417C23.9877 4.31148 24.9947 5.1998 25.6558 6.32178L27.5192 6.32178C26.7317 4.52607 25.2824 3.08636 23.4596 2.2891C23.3976 2.26146 23.345 2.21678 23.3084 2.16047C23.2718 2.10416 23.2526 2.03865 23.2533 1.9719L23.2533 -0.00531395L21.5833 -0.00531387L21.5833 1.9719C21.5823 2.3548 21.6947 2.72977 21.9069 3.05141C22.1192 3.37306 22.4221 3.62758 22.7791 3.78417Z" fill="#E59D0E"/>
    </g>
    <defs>
        <clipPath id="clip0">
            <rect width="31" height="39" fill="white" transform="translate(0 31) rotate(-90)"/>
        </clipPath>
    </defs>
</svg>
