<svg width="20" height="20" viewBox="0 0 20 20" fill="none" xmlns="http://www.w3.org/2000/svg">
    <path d="M17.5 3.75H2.49997C2.16857 3.75038 1.85084 3.8822 1.6165 4.11654C1.38217 4.35087 1.25035 4.6686 1.24997 5V7.55753C1.24993 7.56058 1.24951 7.56355 1.24951 7.5666C1.24951 7.56966 1.24993 7.57263 1.24997 7.57568V15C1.25035 15.3314 1.38217 15.6491 1.6165 15.8835C1.85084 16.1178 2.16857 16.2496 2.49997 16.25H17.5C17.8314 16.2496 18.1491 16.1178 18.3834 15.8835C18.6178 15.6491 18.7496 15.3314 18.75 15V5C18.7496 4.6686 18.6178 4.35087 18.3834 4.11654C18.1491 3.8822 17.8314 3.75038 17.5 3.75ZM10.6245 13.75H9.37451C9.20875 13.75 9.04978 13.6842 8.93257 13.5669C8.81536 13.4497 8.74951 13.2908 8.74951 13.125C8.74951 12.9592 8.81536 12.8003 8.93257 12.6831C9.04978 12.5658 9.20875 12.5 9.37451 12.5H10.6245C10.7903 12.5 10.9492 12.5658 11.0665 12.6831C11.1837 12.8003 11.2495 12.9592 11.2495 13.125C11.2495 13.2908 11.1837 13.4497 11.0665 13.5669C10.9492 13.6842 10.7903 13.75 10.6245 13.75ZM15.6245 13.75H13.1245C12.9588 13.75 12.7998 13.6842 12.6826 13.5669C12.5654 13.4497 12.4995 13.2908 12.4995 13.125C12.4995 12.9592 12.5654 12.8003 12.6826 12.6831C12.7998 12.5658 12.9588 12.5 13.1245 12.5H15.6245C15.7903 12.5 15.9492 12.5658 16.0665 12.6831C16.1837 12.8003 16.2495 12.9592 16.2495 13.125C16.2495 13.2908 16.1837 13.4497 16.0665 13.5669C15.9492 13.6842 15.7903 13.75 15.6245 13.75ZM2.49997 6.9416V5H17.5L17.5001 6.9416H2.49997Z" fill="#929CA6"/>
</svg>
