<svg width="21" height="16" viewBox="0 0 21 16" fill="none" xmlns="http://www.w3.org/2000/svg">
    <path fill-rule="evenodd" clip-rule="evenodd" d="M17.7449 16H2.66667C1.95926 16 1.28148 15.719 0.780952 15.219C0.280952 14.719 0 14.0407 0 13.3333V2.66667C0 1.95926 0.280952 1.28095 0.780952 0.780952C1.28095 0.280952 1.95979 0 2.66667 0H17.7449C18.4523 0 19.1306 0.280952 19.6306 0.780952C20.1306 1.28095 20.4115 1.95926 20.4115 2.66667V13.3333C20.4115 14.0407 20.1306 14.719 19.6306 15.219C19.1306 15.719 18.4523 16 17.7449 16ZM2.66667 14.2222H17.7449C17.9808 14.2222 18.2068 14.1286 18.3734 13.9619C18.5401 13.7952 18.6337 13.5688 18.6337 13.3333V6.51852H1.77778V13.3333C1.77778 13.5688 1.87143 13.7952 2.03809 13.9619C2.20476 14.1286 2.43069 14.2222 2.66667 14.2222ZM17.7449 1.77778H2.66667C2.43122 1.77778 2.20476 1.87143 2.03809 2.03809C1.87143 2.20476 1.77778 2.43122 1.77778 2.66667V4.74074H18.6337V2.66667C18.6337 2.43122 18.5401 2.20476 18.3734 2.03809C18.2068 1.87143 17.9808 1.77778 17.7449 1.77778ZM8.88896 9.48145H4.74081V11.2592H8.88896V9.48145Z" fill="white"/>
</svg>
