<svg width="20" height="20" viewBox="0 0 20 20" fill="none" xmlns="http://www.w3.org/2000/svg">
    <path d="M16.0938 6.25H10.625V5.42492C11.5232 5.02396 12.0501 4.44645 12.193 3.70381C12.5148 2.03106 10.6255 0.339739 10.409 0.1524C10.2969 0.0554082 10.154 0.00140351 10.0058 2.69776e-05C9.85763 -0.00134955 9.71376 0.0499917 9.59991 0.144885C9.37652 0.330966 7.42691 2.01168 7.74314 3.68763C7.88561 4.44283 8.43387 5.028 9.375 5.43129V6.25H3.90625C3.24344 6.25075 2.60799 6.51438 2.13931 6.98306C1.67064 7.45174 1.407 8.08719 1.40625 8.75V9.79126C1.40784 10.2373 1.49778 10.6786 1.67088 11.0896C1.84399 11.5007 2.09682 11.8734 2.41478 12.1862C2.44266 12.2136 2.47139 12.2396 2.5 12.2659V16.25C2.50038 16.5814 2.6322 16.8991 2.86654 17.1335C3.10087 17.3678 3.4186 17.4996 3.75 17.5H16.25C16.5814 17.4996 16.8991 17.3678 17.1335 17.1335C17.3678 16.8991 17.4996 16.5814 17.5 16.25V12.266C17.5286 12.2397 17.5573 12.2136 17.5852 12.1862C17.9032 11.8734 18.156 11.5007 18.3291 11.0896C18.5022 10.6786 18.5922 10.2373 18.5938 9.79126V8.75C18.593 8.08719 18.3294 7.45174 17.8607 6.98306C17.392 6.51438 16.7566 6.25075 16.0938 6.25ZM16.25 16.25H3.75V12.9846C4.07429 13.0838 4.41224 13.131 4.75128 13.1244C5.2588 13.113 5.75678 12.9842 6.20614 12.748C6.65549 12.5118 7.04399 12.1747 7.34114 11.7631C7.64465 12.1846 8.04403 12.5279 8.50632 12.7647C8.96862 13.0015 9.48059 13.125 10 13.125C10.5194 13.125 11.0314 13.0015 11.4937 12.7647C11.956 12.5279 12.3553 12.1846 12.6589 11.7631C12.956 12.1747 13.3445 12.5118 13.7939 12.748C14.2432 12.9842 14.7412 13.113 15.2487 13.1244C15.2696 13.1248 15.2905 13.125 15.3113 13.125C15.6294 13.1252 15.9458 13.078 16.25 12.9851V16.25Z" fill="#929CA6"/>
</svg>
