<svg width="16" height="17" viewBox="0 0 16 17" fill="none" xmlns="http://www.w3.org/2000/svg">
    <path d="M14.2495 1.49976H12.3745V0.874756C12.3745 0.708996 12.3087 0.550024 12.1915 0.432814C12.0742 0.315604 11.9153 0.249756 11.7495 0.249756C11.5838 0.249756 11.4248 0.315604 11.3076 0.432814C11.1904 0.550024 11.1245 0.708996 11.1245 0.874756V1.49976H4.87451V0.874756C4.87451 0.708996 4.80866 0.550024 4.69145 0.432814C4.57424 0.315604 4.41527 0.249756 4.24951 0.249756C4.08375 0.249756 3.92478 0.315604 3.80757 0.432814C3.69036 0.550024 3.62451 0.708996 3.62451 0.874756V1.49976H1.74951C1.41809 1.50008 1.10034 1.63188 0.86599 1.86623C0.63164 2.10058 0.499839 2.41834 0.499512 2.74976V15.2498C0.499839 15.5812 0.63164 15.8989 0.86599 16.1333C1.10034 16.3676 1.41809 16.4994 1.74951 16.4998H14.2495C14.5809 16.4994 14.8987 16.3676 15.133 16.1333C15.3674 15.8989 15.4992 15.5812 15.4995 15.2498V2.74976C15.4992 2.41834 15.3674 2.10058 15.133 1.86623C14.8987 1.63188 14.5809 1.50008 14.2495 1.49976ZM14.2495 5.24976H1.74951V2.74976H3.62451V3.37476C3.62451 3.54052 3.69036 3.69949 3.80757 3.8167C3.92478 3.93391 4.08375 3.99976 4.24951 3.99976C4.41527 3.99976 4.57424 3.93391 4.69145 3.8167C4.80866 3.69949 4.87451 3.54052 4.87451 3.37476V2.74976H11.1245V3.37476C11.1245 3.54052 11.1904 3.69949 11.3076 3.8167C11.4248 3.93391 11.5838 3.99976 11.7495 3.99976C11.9153 3.99976 12.0742 3.93391 12.1915 3.8167C12.3087 3.69949 12.3745 3.54052 12.3745 3.37476V2.74976H14.2495V5.24976Z" fill="#929CA6"/>
</svg>
