<svg width="20" height="20" viewBox="0 0 20 20" fill="none" xmlns="http://www.w3.org/2000/svg">
    <path d="M18.1246 7.49401C18.1242 7.44623 18.1183 7.39865 18.107 7.35224C18.1057 7.34684 18.104 7.34155 18.1026 7.33619C18.0978 7.31869 18.0923 7.30134 18.086 7.28416C18.0836 7.27781 18.0812 7.27152 18.0787 7.26524C18.0722 7.24926 18.0648 7.23351 18.0569 7.2179C18.0539 7.21183 18.051 7.20569 18.0478 7.19972C18.0384 7.18279 18.0281 7.16621 18.017 7.14992C18.0146 7.14632 18.0125 7.14248 18.01 7.13894L18.0089 7.13714C17.9954 7.11841 17.981 7.10042 17.9655 7.08326C17.9622 7.07948 17.9584 7.07605 17.9549 7.07235C17.9418 7.05833 17.9282 7.04494 17.914 7.03237C17.9093 7.02817 17.9044 7.02419 17.8995 7.02012C17.8851 7.00811 17.8702 6.99683 17.855 6.98629C17.8521 6.98428 17.8496 6.98192 17.8467 6.97997L10.3467 1.97997C10.244 1.91154 10.1234 1.87503 10 1.87503C9.87662 1.87503 9.75599 1.91154 9.65332 1.97997L2.15332 6.97997C2.1505 6.98184 2.14809 6.98413 2.14535 6.98604C2.12986 6.99672 2.11485 7.00814 2.1003 7.02029C2.09553 7.02426 2.09072 7.02813 2.08611 7.03223C2.0718 7.04492 2.05807 7.05842 2.04483 7.07259C2.04144 7.07618 2.03781 7.07954 2.0345 7.0832C2.01907 7.10038 2.00459 7.11838 1.99112 7.13714L1.98998 7.13894C1.98746 7.14248 1.9854 7.14632 1.98296 7.14992C1.9719 7.16621 1.96156 7.18279 1.95225 7.19972C1.94901 7.20569 1.94615 7.21183 1.94306 7.2179C1.93516 7.2335 1.92784 7.24926 1.92131 7.26524C1.9188 7.27152 1.91639 7.27781 1.91403 7.28416C1.9077 7.30135 1.90217 7.3187 1.89743 7.33619C1.89598 7.34155 1.89434 7.34684 1.89305 7.35224C1.88171 7.39865 1.87578 7.44623 1.87539 7.49401C1.87534 7.49603 1.875 7.49798 1.875 7.5V15.625C1.87538 15.9564 2.0072 16.2741 2.24154 16.5085C2.47587 16.7428 2.7936 16.8746 3.125 16.875H16.875C17.2064 16.8746 17.5241 16.7428 17.7585 16.5085C17.9928 16.2741 18.1246 15.9564 18.125 15.625V7.5C18.125 7.49798 18.1247 7.49603 18.1246 7.49401ZM3.125 8.71319L7.55646 11.8726L3.125 15.0029V8.71319ZM8.83484 12.5H11.1652L15.5893 15.625H4.41074L8.83484 12.5ZM12.4435 11.8726L16.875 8.71319V15.0028L12.4435 11.8726Z" fill="#929CA6"/>
</svg>
