<svg width="17" height="18" viewBox="0 0 17 18" fill="none" xmlns="http://www.w3.org/2000/svg">
    <path fill-rule="evenodd" clip-rule="evenodd" d="M4.95661 17.9989C4.1763 17.9947 3.50893 17.9766 2.95308 17.9023C2.18657 17.7993 1.50964 17.5748 0.967601 17.0324C0.425561 16.4904 0.200743 15.8134 0.097716 15.0469C0 14.3169 0 13.3942 0 12.2758V8.1161C0 7.52484 0 7.02741 0.0371746 6.61283C0.0768275 6.17381 0.161798 5.77197 0.362187 5.37969C0.562575 4.98777 0.838729 4.68364 1.17153 4.39439C1.48557 4.12142 1.88918 3.8304 2.3682 3.48414L4.91306 1.6463C5.58114 1.16374 6.13841 0.761194 6.62982 0.485394C7.14956 0.193308 7.66717 0 8.2609 0C8.85463 0 9.37224 0.193308 9.89198 0.48504C10.3834 0.761194 10.941 1.16374 11.6087 1.64595L14.1536 3.48379C14.633 3.83004 15.0362 4.12107 15.3503 4.39403C15.6831 4.68329 15.9592 4.98741 16.1596 5.37934C16.36 5.77162 16.445 6.17346 16.4846 6.61247C16.5218 7.0267 16.5218 7.52449 16.5218 8.11574V12.2755C16.5218 13.3939 16.5218 14.3165 16.4237 15.0466C16.3207 15.8131 16.0959 16.49 15.5538 17.032C15.0118 17.5741 14.3349 17.7989 13.5684 17.9019C13.0125 17.9766 12.3455 17.9943 11.5648 17.9986V18H10.8953H10.7973H5.72453H5.62646H4.95661V17.9989ZM5.84243 3.01291C6.55795 2.49601 7.0391 2.15011 7.43881 1.92564C7.82012 1.7118 8.05308 1.65232 8.26055 1.65232C8.46802 1.65232 8.70133 1.7118 9.08228 1.92564C9.482 2.15011 9.96314 2.49601 10.6787 3.01291L13.157 4.8026C13.6725 5.17505 14.0148 5.42324 14.2662 5.64168C14.5052 5.84915 14.6167 5.99254 14.6879 6.13203C14.759 6.27153 14.81 6.44572 14.8383 6.76117C14.8681 7.09291 14.8691 8.33344 14.8691 8.96931V12.2174C14.8691 13.4091 14.8674 14.2195 14.7856 14.8267C14.7073 15.4102 14.5689 15.6803 14.3848 15.8641C14.201 16.0482 13.9309 16.1862 13.3474 16.2648C12.8925 16.3261 12.3228 16.3424 11.5641 16.3466V14.6309C11.5645 14.3006 11.5648 13.9076 11.5192 13.5695C11.4643 13.1613 11.3174 12.5966 10.8383 12.1176C10.359 11.6385 9.79462 11.4916 9.3864 11.4367C9.04829 11.3911 8.65495 11.3914 8.32498 11.3918H8.19469C7.86473 11.3914 7.47138 11.3911 7.13327 11.4367C6.72506 11.4916 6.16036 11.6385 5.68134 12.1176C5.20232 12.5969 5.05539 13.1613 5.00051 13.5695C4.95484 13.9076 4.95519 14.301 4.95555 14.6309V16.3466C4.19683 16.3424 3.62718 16.3261 3.17223 16.2648C2.58877 16.1866 2.31899 16.0482 2.13488 15.8641C1.95113 15.6803 1.8127 15.4102 1.73446 14.8267C1.65303 14.2199 1.65091 13.4091 1.65091 12.2174V8.96931C1.65091 8.33344 1.65161 7.09255 1.68171 6.76117C1.71003 6.44607 1.76101 6.27153 1.83218 6.13203C1.90334 5.99254 2.01522 5.84951 2.25384 5.64168C2.50521 5.42324 2.84757 5.17505 3.36306 4.8026L5.84243 3.01291ZM6.60858 16.348H9.91322V14.6957C9.91322 13.9168 9.91322 13.5274 9.67106 13.2856C9.42889 13.0434 9.0398 13.0434 8.2609 13.0434C7.482 13.0434 7.09256 13.0434 6.85074 13.2856C6.60858 13.5277 6.60858 13.9168 6.60858 14.6957V16.348Z" fill="white"/>
</svg>
