<svg width="40" height="40" viewBox="0 0 40 40" fill="none" xmlns="http://www.w3.org/2000/svg">
    <g clip-path="url(#clip0)">
        <path d="M19.1416 0.390641C16.1838 0.386766 13.2657 1.07122 10.6182 2.38986L2.72754 29.3852C4.42815 32.2192 6.83402 34.5643 9.71064 36.1918C12.5873 37.8193 15.8365 38.6738 19.1416 38.6719C29.7127 38.6719 38.2822 30.1024 38.2822 19.5313C38.2822 8.96017 29.7127 0.390641 19.1416 0.390641Z" fill="#3B3868"/>
        <path d="M38.3244 2.38989H10.6182C8.52667 3.43371 6.64301 4.8501 5.05957 6.56958H34.2502C34.6587 6.5702 35.0504 6.73282 35.3392 7.02178C35.628 7.31074 35.7904 7.70244 35.7908 8.11099V25.3415H38.3236C38.7684 25.341 39.1948 25.1642 39.5092 24.8497C39.8237 24.5352 40.0006 24.1088 40.001 23.6641V4.06724C40.0006 3.62264 39.8238 3.19636 39.5095 2.88191C39.1952 2.56746 38.769 2.39051 38.3244 2.38989Z" fill="#49CE8B"/>
        <path d="M12.9018 2.38989H10.6182C8.52654 3.43349 6.64284 4.8499 5.05957 6.56958H14.1221C14.0907 6.45766 14.0268 6.35758 13.9385 6.28208C13.3604 5.79536 13.4033 5.19536 13.5166 4.80942C13.5487 4.69776 13.5475 4.57918 13.5132 4.46818C13.4789 4.35718 13.4131 4.25857 13.3236 4.18442C12.64 3.61177 12.7518 2.92895 12.8658 2.59614C12.8883 2.53082 12.8994 2.46211 12.8986 2.39302L12.9018 2.38989Z" fill="#36B277"/>
        <path d="M37.2939 4.42737H7.38613C6.55315 5.07639 5.775 5.79287 5.05957 6.56956H34.2494C34.6581 6.56997 35.0499 6.7325 35.3389 7.02148C35.6279 7.31046 35.7904 7.70229 35.7908 8.11096V23.3039H37.2939C37.4716 23.3039 37.642 23.2334 37.7677 23.1079C37.8933 22.9824 37.9641 22.8121 37.9643 22.6344V5.0969C37.9638 4.91932 37.8931 4.74914 37.7674 4.62365C37.6418 4.49816 37.4715 4.42757 37.2939 4.42737Z" fill="#36B277"/>
        <path d="M5.05957 6.56956H14.1221C14.0909 6.45778 14.027 6.35791 13.9385 6.28284C13.3604 5.79534 13.4033 5.19534 13.5166 4.81018C13.5542 4.68424 13.5479 4.54923 13.4986 4.42737H7.38613C6.55315 5.07639 5.775 5.79287 5.05957 6.56956Z" fill="#279B61"/>
        <path d="M37.2939 4.42737H31.9993C31.88 5.13999 31.9111 5.86969 32.0907 6.56956H34.2493C34.658 6.56997 35.0498 6.7325 35.3388 7.02148C35.6278 7.31046 35.7903 7.70229 35.7907 8.11097V10.2914C36.4996 10.4786 37.2403 10.5126 37.9634 10.3914V5.0969C37.9634 4.91933 37.8929 4.74903 37.7673 4.62347C37.6417 4.49791 37.4714 4.42737 37.2939 4.42737Z" fill="#279B61"/>
        <path d="M34.2502 6.43445H5.18774C2.33697 9.47171 0.554619 13.3559 0.111064 17.4978C-0.332492 21.6397 0.586958 25.8132 2.72993 29.3852H34.2495C34.6941 29.3848 35.1203 29.2081 35.4348 28.8938C35.7492 28.5795 35.9262 28.1533 35.9268 27.7087V8.11101C35.9264 7.66649 35.7496 7.24029 35.4353 6.92596C35.121 6.61163 34.6948 6.43486 34.2502 6.43445Z" fill="#49CE8B"/>
        <path d="M0.000999598 19.5312C-0.00439903 23.0032 0.939234 26.4106 2.72991 29.3852H16.276V25.6508C16.2743 25.5387 16.2482 25.4284 16.1995 25.3274C16.1508 25.2265 16.0807 25.1374 15.994 25.0664C15.8935 24.9825 15.8137 24.8765 15.761 24.7567C15.7083 24.6369 15.684 24.5065 15.6901 24.3758C15.6938 24.2456 15.6652 24.1165 15.6068 24.0001C15.5485 23.8837 15.4622 23.7835 15.3557 23.7086C15.1337 23.5576 14.9563 23.3497 14.842 23.1068C14.7276 22.8638 14.6806 22.5947 14.7057 22.3273C14.7141 22.2274 14.7027 22.1268 14.6721 22.0312L14.594 21.7844C14.5629 21.688 14.5512 21.5864 14.5595 21.4854C14.5679 21.3845 14.596 21.2861 14.6424 21.1961C15.0096 20.4828 15.8096 18.5586 14.1471 17.9094C12.6776 17.3359 12.5026 16.0828 12.5229 15.4141C12.5272 15.2847 12.4987 15.1563 12.4401 15.0409C12.3815 14.9255 12.2947 14.8268 12.1877 14.7539C11.3377 14.1789 11.2104 13.407 11.2424 12.8883C11.2516 12.7267 11.2104 12.5662 11.1245 12.4291C11.0385 12.2919 10.9121 12.1849 10.7627 12.1227C8.90412 11.3344 8.95959 9.66172 9.09944 8.88438C9.1209 8.76154 9.11228 8.63533 9.07432 8.51656C9.03636 8.39778 8.97019 8.28997 8.88147 8.20234C8.44709 7.76953 8.36506 7.32578 8.39162 6.99141C8.40675 6.78902 8.34196 6.58877 8.21116 6.43359H5.18459C1.84869 9.97806 -0.00578845 14.6639 0.000999598 19.5312Z" fill="#36B277"/>
        <path d="M33.2197 8.47107H3.51656C1.59634 11.1864 0.415944 14.3548 0.0914385 17.6647C-0.233067 20.9745 0.309498 24.3118 1.66578 27.3484H33.2197C33.3973 27.3482 33.5676 27.2775 33.6932 27.1518C33.8187 27.0261 33.8892 26.8557 33.8892 26.6781V9.14138C33.8892 8.96374 33.8187 8.79336 33.6932 8.66768C33.5676 8.54199 33.3973 8.47128 33.2197 8.47107Z" fill="#36B277"/>
        <path d="M0.00100696 19.5312C-0.00246838 22.2253 0.56494 24.8895 1.66585 27.3484H16.2752V25.6508C16.2736 25.5387 16.2475 25.4284 16.1987 25.3274C16.15 25.2265 16.0799 25.1374 15.9932 25.0664C15.8927 24.9825 15.813 24.8765 15.7602 24.7567C15.7075 24.6369 15.6832 24.5065 15.6893 24.3758C15.693 24.2456 15.6644 24.1165 15.6061 24.0001C15.5477 23.8837 15.4614 23.7835 15.3549 23.7086C15.1329 23.5575 14.9555 23.3497 14.8412 23.1068C14.7268 22.8638 14.6798 22.5946 14.7049 22.3273C14.7133 22.2274 14.7019 22.1267 14.6713 22.0312L14.5932 21.7844C14.5622 21.6879 14.5505 21.5863 14.5588 21.4854C14.5671 21.3844 14.5952 21.2861 14.6416 21.1961C15.0088 20.4828 15.8088 18.5586 14.1463 17.9094C12.6768 17.3359 12.5018 16.0828 12.5221 15.414C12.5264 15.2847 12.4979 15.1563 12.4393 15.0409C12.3807 14.9255 12.2939 14.8268 12.1869 14.7539C11.3369 14.1789 11.2096 13.407 11.2416 12.8883C11.2508 12.7267 11.2096 12.5662 11.1237 12.4291C11.0378 12.2919 10.9114 12.1848 10.7619 12.1226C8.90335 11.3344 8.95882 9.66169 9.09866 8.88435C9.12351 8.74529 9.10861 8.60204 9.05569 8.47107H3.51663C1.22286 11.7024 -0.00607052 15.5686 0.00100696 19.5312Z" fill="#279B61"/>
        <path d="M33.8892 9.14138V14.4351C33.0754 14.5714 32.2408 14.5113 31.4549 14.2598C30.669 14.0083 29.9546 13.5726 29.3711 12.9892C28.7876 12.4057 28.352 11.6913 28.1005 10.9054C27.849 10.1195 27.7889 9.28489 27.9251 8.47107H33.2197C33.3973 8.47128 33.5676 8.54199 33.6931 8.66768C33.8187 8.79336 33.8892 8.96374 33.8892 9.14138Z" fill="#279B61"/>
        <path d="M33.8892 26.6798V21.3837C33.608 21.3372 33.3234 21.3137 33.0384 21.3134C32.2854 21.3127 31.5413 21.4762 30.858 21.7925C30.1746 22.1087 29.5685 22.5702 29.0817 23.1447C28.595 23.7193 28.2393 24.393 28.0396 25.119C27.8398 25.845 27.8008 26.6059 27.9251 27.3485H33.2197C33.397 27.3483 33.5671 27.2778 33.6926 27.1525C33.8181 27.0271 33.8888 26.8571 33.8892 26.6798Z" fill="#279B61"/>
        <path d="M14.1463 24.1562C17.5963 24.1562 20.3932 21.3594 20.3932 17.9094C20.3932 14.4593 17.5963 11.6625 14.1463 11.6625C10.6962 11.6625 7.89941 14.4593 7.89941 17.9094C7.89941 21.3594 10.6962 24.1562 14.1463 24.1562Z" fill="#279B61"/>
        <path d="M15.3556 23.711C15.1338 23.56 14.9564 23.3523 14.8421 23.1095C14.7278 22.8667 14.6807 22.5977 14.7056 22.3305C14.7141 22.2303 14.7027 22.1294 14.6721 22.0336L14.5939 21.7867C14.5317 21.5919 14.5491 21.3804 14.6424 21.1984C15.0096 20.4852 15.8096 18.5609 14.1471 17.9117C12.6775 17.3383 12.5025 16.0852 12.5228 15.4164C12.5271 15.2871 12.4986 15.1587 12.44 15.0433C12.3814 14.9279 12.2946 14.8292 12.1877 14.7563C11.3377 14.1813 11.2103 13.4094 11.2424 12.8906C11.2516 12.7329 11.2124 12.5761 11.1299 12.4414C9.8114 13.1745 8.80257 14.3597 8.28953 15.7783C7.77649 17.197 7.79387 18.7533 8.33845 20.1601C8.88304 21.5669 9.91809 22.7293 11.2526 23.4328C12.5871 24.1362 14.131 24.3333 15.5994 23.9875C15.5416 23.8773 15.4583 23.7825 15.3564 23.711H15.3556Z" fill="#1C8C51"/>
        <path d="M31.1846 39.5508C35.3936 39.5508 38.8057 36.1387 38.8057 31.9297C38.8057 27.7207 35.3936 24.3086 31.1846 24.3086C26.9756 24.3086 23.5635 27.7207 23.5635 31.9297C23.5635 36.1387 26.9756 39.5508 31.1846 39.5508Z" fill="#FFDD40"/>
        <path d="M23.561 31.9086C23.5608 33.3996 23.9979 34.8581 24.8183 36.1031C25.6388 37.3482 26.8064 38.3253 28.1766 38.9133C29.5469 39.5014 31.0595 39.6745 32.5272 39.4114C33.9949 39.1482 35.3531 38.4603 36.4337 37.4328C36.3979 37.4014 36.3536 37.3813 36.3063 37.375C35.8313 37.3132 35.7446 37.0015 35.7423 36.789C35.7414 36.7347 35.7225 36.6822 35.6886 36.6398C35.6546 36.5974 35.6076 36.5674 35.5548 36.5547C35.0321 36.425 34.9384 36.0461 34.9337 35.8117C34.9323 35.7563 34.9118 35.7032 34.8756 35.6613C34.8394 35.6194 34.7898 35.5914 34.7353 35.582C32.8712 35.2242 32.9892 33.7703 33.036 33.4609C33.0425 33.4174 33.0374 33.3729 33.0212 33.332C32.929 33.1109 32.5431 32.4195 31.1837 31.9117C29.8556 31.4148 29.822 30.0093 29.8556 29.4961C29.8588 29.4422 29.8442 29.3888 29.814 29.3442C29.7837 29.2995 29.7396 29.2661 29.6884 29.2492C28.6298 28.8851 28.6376 27.9086 28.6985 27.4765C28.7062 27.42 28.6938 27.3626 28.6635 27.3142C28.6333 27.2659 28.5871 27.2296 28.5329 27.2117C28.0079 27.0273 27.9938 26.5789 28.0353 26.3195C28.0435 26.2676 28.034 26.2144 28.0084 26.1685C27.9827 26.1225 27.9424 26.0866 27.8938 26.0664C27.5478 25.9148 27.5087 25.5976 27.5243 25.3953C27.5285 25.3423 27.5154 25.2894 27.4868 25.2445C26.2972 25.9038 25.3057 26.8695 24.6154 28.0413C23.9251 29.2132 23.561 30.5485 23.561 31.9086Z" fill="#FFB332"/>
        <path d="M31.1775 37.1555C34.0753 37.1555 36.4244 34.8064 36.4244 31.9086C36.4244 29.0108 34.0753 26.6617 31.1775 26.6617C28.2798 26.6617 25.9307 29.0108 25.9307 31.9086C25.9307 34.8064 28.2798 37.1555 31.1775 37.1555Z" fill="#FCECA9"/>
        <path d="M34.8642 35.6477C34.8292 35.6122 34.7843 35.5882 34.7353 35.5789C32.8705 35.2211 32.9892 33.7672 33.0361 33.4578C33.0427 33.4142 33.0373 33.3697 33.0205 33.3289C32.929 33.1078 32.5431 32.4164 31.1837 31.9086C29.8556 31.4117 29.822 30.0063 29.8556 29.493C29.8589 29.4392 29.8442 29.3858 29.814 29.3411C29.7838 29.2965 29.7396 29.2631 29.6884 29.2461C28.6298 28.8821 28.6376 27.9055 28.6986 27.4735C28.7067 27.4148 28.6928 27.3552 28.6595 27.3063C28.0015 27.6667 27.4284 28.164 26.9789 28.7647C26.5294 29.3654 26.214 30.0555 26.0538 30.7885C25.8937 31.5215 25.8925 32.2802 26.0505 33.0137C26.2085 33.7471 26.5219 34.4381 26.9696 35.0402C27.4173 35.6422 27.9889 36.1412 28.6458 36.5036C29.3028 36.866 30.0298 37.0833 30.7778 37.1409C31.5259 37.1985 32.2775 37.095 32.9822 36.8374C33.6869 36.5798 34.3281 36.1741 34.8626 35.6477H34.8642Z" fill="#FFDD40"/>
        <path d="M31.1837 26.6609C32.2217 26.6605 33.2365 26.9679 34.0998 27.5442C34.9631 28.1205 35.636 28.9399 36.0336 29.8988C36.4311 30.8576 36.5354 31.9128 36.3331 32.9309C36.1309 33.949 35.6313 34.8843 34.8975 35.6184C34.1637 36.3526 33.2287 36.8526 32.2107 37.0553C31.1927 37.2579 30.1374 37.1541 29.1784 36.757C28.2194 36.3599 27.3997 35.6873 26.8229 34.8243C26.2462 33.9613 25.9384 32.9466 25.9384 31.9086C25.9384 30.517 26.4912 29.1823 27.4751 28.1982C28.4591 27.2141 29.7936 26.6611 31.1853 26.6609H31.1837ZM31.1853 25.3547C29.8889 25.3539 28.6213 25.7376 27.543 26.4573C26.4647 27.177 25.6241 28.2003 25.1275 29.3978C24.6308 30.5953 24.5005 31.9132 24.7529 33.1848C25.0053 34.4564 25.6292 35.6246 26.5457 36.5415C27.4621 37.4585 28.6299 38.0831 29.9013 38.3363C31.1727 38.5895 32.4907 38.4599 33.6885 37.964C34.8863 37.4681 35.9101 36.628 36.6305 35.5502C37.3508 34.4723 37.7353 33.205 37.7353 31.9086C37.7338 30.171 37.0433 28.5048 35.8151 27.2756C34.5869 26.0464 32.9213 25.3545 31.1837 25.3516L31.1853 25.3547Z" fill="#FFB332"/>
        <path d="M31.1838 38.4618C32.8656 38.4625 34.4828 37.8144 35.6987 36.6524C35.6652 36.6019 35.6138 36.5659 35.5549 36.5516C35.0315 36.422 34.9385 36.0431 34.9338 35.8087C34.9323 35.7481 34.9074 35.6904 34.8643 35.6477C34.3293 36.1724 33.6882 36.5764 32.9841 36.8326C32.28 37.0887 31.5291 37.1911 30.7821 37.1328C30.0351 37.0745 29.3093 36.8569 28.6534 36.4946C27.9975 36.1323 27.4268 35.6337 26.9798 35.0324C26.5327 34.4312 26.2196 33.7411 26.0615 33.0087C25.9035 32.2762 25.9041 31.5185 26.0634 30.7863C26.2227 30.0542 26.537 29.3646 26.9851 28.7641C27.4332 28.1635 28.0047 27.6659 28.6612 27.3048C28.6311 27.2588 28.5866 27.2241 28.5346 27.2063C28.0096 27.0227 27.9955 26.5735 28.0369 26.3141C28.0443 26.2658 28.0364 26.2163 28.0143 26.1727C26.7423 26.8752 25.7398 27.9806 25.1648 29.3151C24.5897 30.6496 24.4746 32.1373 24.8376 33.5444C25.2005 34.9514 26.021 36.1979 27.1698 37.0876C28.3187 37.9774 29.7307 38.46 31.1838 38.4595V38.4618Z" fill="#FF9100"/>
        <path d="M25.5775 39.5313C29.7874 39.5313 33.2001 36.1185 33.2001 31.9087C33.2001 27.6988 29.7874 24.286 25.5775 24.286C21.3676 24.286 17.9548 27.6988 17.9548 31.9087C17.9548 36.1185 21.3676 39.5313 25.5775 39.5313Z" fill="#FFDD40"/>
        <path d="M17.9548 31.9086C17.9546 33.3996 18.3917 34.8581 19.2121 36.1031C20.0326 37.3482 21.2002 38.3253 22.5704 38.9133C23.9407 39.5014 25.4533 39.6745 26.921 39.4114C28.3887 39.1482 29.7469 38.4603 30.8275 37.4328C30.7916 37.4014 30.7474 37.3813 30.7001 37.375C30.2251 37.3132 30.1384 37.0015 30.1361 36.789C30.1351 36.7347 30.1161 36.6823 30.0822 36.6399C30.0483 36.5976 30.0013 36.5676 29.9486 36.5547C29.4259 36.425 29.3322 36.0461 29.3275 35.8117C29.326 35.7564 29.3054 35.7033 29.2692 35.6615C29.2331 35.6196 29.1835 35.5915 29.1291 35.582C27.265 35.2242 27.383 33.7703 27.4298 33.4609C27.4363 33.4174 27.4312 33.3729 27.415 33.332C27.3228 33.1109 26.9369 32.4195 25.5775 31.9117C24.2494 31.4148 24.2158 30.0093 24.2494 29.4961C24.2526 29.4422 24.238 29.3888 24.2077 29.3442C24.1775 29.2995 24.1334 29.2661 24.0822 29.2492C23.0236 28.8851 23.0314 27.9086 23.0923 27.4765C23.1 27.42 23.0876 27.3626 23.0573 27.3142C23.0271 27.2659 22.9809 27.2296 22.9267 27.2117C22.4017 27.0273 22.3876 26.5789 22.4291 26.3195C22.4373 26.2676 22.4278 26.2144 22.4022 26.1685C22.3765 26.1225 22.3362 26.0866 22.2876 26.0664C21.9416 25.9148 21.9025 25.5976 21.9181 25.3953C21.9221 25.3422 21.9086 25.2893 21.8798 25.2445C20.6904 25.9039 19.6992 26.8697 19.009 28.0415C18.3188 29.2134 17.9548 30.5486 17.9548 31.9086Z" fill="#FFB332"/>
        <path d="M25.5775 37.1477C28.4757 37.1477 30.8251 34.7982 30.8251 31.9C30.8251 29.0018 28.4757 26.6523 25.5775 26.6523C22.6793 26.6523 20.3298 29.0018 20.3298 31.9C20.3298 34.7982 22.6793 37.1477 25.5775 37.1477Z" fill="#FCECA9"/>
        <path d="M29.258 35.6477C29.2231 35.6122 29.1781 35.5882 29.1291 35.5789C27.265 35.2211 27.383 33.7672 27.4299 33.4578C27.4363 33.4143 27.4312 33.3698 27.415 33.3289C27.3229 33.1078 26.9369 32.4164 25.5775 31.9086C24.2494 31.4117 24.2158 30.0063 24.2494 29.493C24.2527 29.4392 24.238 29.3858 24.2078 29.3411C24.1776 29.2965 24.1334 29.2631 24.0822 29.2461C23.0236 28.8821 23.0314 27.9055 23.0924 27.4735C23.1005 27.4148 23.0866 27.3552 23.0533 27.3063C22.3953 27.6667 21.8222 28.164 21.3727 28.7647C20.9232 29.3654 20.6078 30.0555 20.4476 30.7885C20.2875 31.5215 20.2863 32.2802 20.4443 33.0137C20.6023 33.7471 20.9157 34.4381 21.3634 35.0402C21.8111 35.6422 22.3827 36.1412 23.0396 36.5036C23.6966 36.866 24.4236 37.0833 25.1716 37.1409C25.9197 37.1985 26.6714 37.095 27.376 36.8374C28.0807 36.5798 28.7219 36.1741 29.2564 35.6477H29.258Z" fill="#FFDD40"/>
        <path d="M25.5776 26.6609C26.6155 26.6608 27.6302 26.9684 28.4932 27.5449C29.3563 28.1215 30.029 28.941 30.4264 29.8999C30.8237 30.8587 30.9277 31.9139 30.7253 32.9319C30.5229 33.9499 30.0232 34.885 29.2893 35.619C28.5554 36.3529 27.6204 36.8528 26.6024 37.0554C25.5845 37.2579 24.5293 37.154 23.5704 36.7569C22.6114 36.3597 21.7918 35.6871 21.2152 34.8241C20.6385 33.9611 20.3307 32.9465 20.3307 31.9086C20.3307 30.517 20.8835 29.1823 21.8674 28.1982C22.8514 27.2141 24.186 26.6611 25.5776 26.6609ZM25.5776 25.3547C24.2814 25.3547 23.0142 25.7391 21.9364 26.4592C20.8587 27.1794 20.0186 28.203 19.5226 29.4005C19.0265 30.5981 18.8967 31.9159 19.1496 33.1872C19.4025 34.4585 20.0267 35.6263 20.9433 36.5429C21.8599 37.4595 23.0277 38.0837 24.299 38.3366C25.5703 38.5895 26.8881 38.4597 28.0857 37.9636C29.2832 37.4676 30.3068 36.6275 31.027 35.5497C31.7471 34.472 32.1315 33.2048 32.1315 31.9086C32.13 30.1705 31.4392 28.5041 30.2105 27.2748C28.9818 26.0455 27.3156 25.3538 25.5776 25.3516V25.3547Z" fill="#FFB332"/>
        <path d="M25.5776 38.4618C27.2594 38.4625 28.8766 37.8144 30.0925 36.6524C30.059 36.6019 30.0076 36.5659 29.9487 36.5516C29.4253 36.422 29.3323 36.0431 29.3276 35.8087C29.3261 35.7481 29.3012 35.6904 29.2581 35.6477C28.7231 36.1724 28.082 36.5764 27.3779 36.8326C26.6738 37.0887 25.9229 37.1911 25.1759 37.1328C24.4289 37.0745 23.7031 36.8569 23.0472 36.4946C22.3913 36.1323 21.8206 35.6337 21.3736 35.0324C20.9265 34.4312 20.6134 33.7411 20.4553 33.0087C20.2973 32.2762 20.2979 31.5185 20.4572 30.7863C20.6165 30.0542 20.9308 29.3646 21.3789 28.7641C21.827 28.1635 22.3985 27.6659 23.055 27.3048C23.0247 27.2589 22.9802 27.2244 22.9284 27.2063C22.4034 27.0227 22.3893 26.5735 22.4307 26.3141C22.4382 26.2657 22.43 26.2162 22.4073 26.1727C21.1358 26.8756 20.134 27.9812 19.5594 29.3156C18.9848 30.6499 18.87 32.1374 19.233 33.5442C19.5959 34.9509 20.4162 36.1972 21.5646 37.0869C22.7131 37.9767 24.1248 38.4595 25.5776 38.4595V38.4618Z" fill="#FF9100"/>
        <path d="M19.9829 39.5375C24.1936 39.5375 27.6071 36.124 27.6071 31.9133C27.6071 27.7025 24.1936 24.2891 19.9829 24.2891C15.7721 24.2891 12.3586 27.7025 12.3586 31.9133C12.3586 36.124 15.7721 39.5375 19.9829 39.5375Z" fill="#FFDD40"/>
        <path d="M12.3485 31.9086C12.3482 33.3996 12.7854 34.8581 13.6058 36.1031C14.4262 37.3482 15.5939 38.3253 16.9641 38.9133C18.3343 39.5014 19.847 39.6745 21.3147 39.4114C22.7823 39.1482 24.1406 38.4603 25.2211 37.4328C25.1853 37.4014 25.141 37.3813 25.0938 37.375C24.6188 37.3132 24.5313 37.0015 24.5297 36.789C24.5287 36.7347 24.5098 36.6823 24.4759 36.6399C24.4419 36.5976 24.395 36.5676 24.3422 36.5547C23.8196 36.425 23.7258 36.0461 23.7211 35.8117C23.7198 35.7563 23.6992 35.7032 23.6631 35.6613C23.6269 35.6194 23.5773 35.5914 23.5227 35.582C21.6579 35.2242 21.7766 33.7703 21.8235 33.4609C21.8299 33.4174 21.8248 33.3729 21.8086 33.332C21.7165 33.1109 21.3305 32.4195 19.9711 31.9117C18.643 31.4148 18.6094 30.0093 18.643 29.4961C18.6463 29.4422 18.6316 29.3888 18.6014 29.3442C18.5712 29.2995 18.527 29.2661 18.4758 29.2492C17.4172 28.8851 17.425 27.9086 17.486 27.4765C17.4936 27.42 17.4812 27.3626 17.451 27.3142C17.4207 27.2659 17.3745 27.2296 17.3204 27.2117C16.7954 27.0273 16.7813 26.5789 16.8227 26.3195C16.831 26.2676 16.8215 26.2144 16.7958 26.1685C16.7702 26.1225 16.7298 26.0866 16.6813 26.0664C16.3352 25.9148 16.2961 25.5976 16.3118 25.3953C16.3156 25.3423 16.3025 25.2895 16.2743 25.2445C15.0839 25.9038 14.0918 26.8699 13.4012 28.0424C12.7105 29.2149 12.3465 30.5509 12.3469 31.9117L12.3485 31.9086Z" fill="#FFB332"/>
        <path d="M23.6762 35.6173C25.7252 33.5683 25.7252 30.2462 23.6762 28.1971C21.6272 26.1481 18.305 26.1481 16.256 28.1971C14.207 30.2462 14.207 33.5683 16.256 35.6173C18.305 37.6664 21.6272 37.6664 23.6762 35.6173Z" fill="#FCECA9"/>
        <path d="M23.6518 35.6477C23.6168 35.6122 23.5718 35.5882 23.5229 35.5789C21.658 35.2211 21.7768 33.7672 21.8237 33.4578C21.8301 33.4143 21.825 33.3698 21.8088 33.3289C21.7166 33.1078 21.3307 32.4164 19.9713 31.9086C18.6432 31.4117 18.6096 30.0063 18.6432 29.493C18.6465 29.4392 18.6318 29.3858 18.6016 29.3411C18.5713 29.2965 18.5272 29.2631 18.476 29.2461C17.4174 28.8821 17.4252 27.9055 17.4862 27.4735C17.4943 27.4148 17.4804 27.3552 17.4471 27.3063C16.7891 27.6667 16.216 28.164 15.7665 28.7647C15.317 29.3654 15.0016 30.0555 14.8414 30.7885C14.6813 31.5215 14.6801 32.2802 14.8381 33.0137C14.9961 33.7471 15.3095 34.4381 15.7572 35.0402C16.2049 35.6422 16.7765 36.1412 17.4334 36.5036C18.0904 36.866 18.8174 37.0833 19.5654 37.1409C20.3134 37.1985 21.0651 37.095 21.7698 36.8374C22.4744 36.5798 23.1157 36.1741 23.6502 35.6477H23.6518Z" fill="#FFDD40"/>
        <path d="M19.9712 26.6609C21.0091 26.6608 22.0237 26.9684 22.8868 27.5449C23.7499 28.1215 24.4226 28.941 24.8199 29.8999C25.2172 30.8587 25.3213 31.9139 25.1189 32.9319C24.9165 33.9499 24.4167 34.885 23.6829 35.619C22.949 36.3529 22.014 36.8528 20.996 37.0554C19.978 37.2579 18.9229 37.154 17.9639 36.7569C17.005 36.3597 16.1854 35.6871 15.6087 34.8241C15.0321 33.9611 14.7243 32.9465 14.7243 31.9086C14.7243 30.517 15.277 29.1823 16.261 28.1982C17.245 27.2141 18.5795 26.6611 19.9712 26.6609ZM19.9712 25.3547C18.6749 25.3547 17.4078 25.7391 16.33 26.4592C15.2522 27.1794 14.4122 28.203 13.9161 29.4005C13.4201 30.5981 13.2903 31.9159 13.5432 33.1872C13.7961 34.4585 14.4203 35.6263 15.3368 36.5429C16.2534 37.4595 17.4212 38.0837 18.6925 38.3366C19.9639 38.5895 21.2817 38.4597 22.4792 37.9636C23.6768 37.4676 24.7004 36.6275 25.4205 35.5497C26.1407 34.472 26.5251 33.2048 26.5251 31.9086C26.5236 30.1705 25.8328 28.5041 24.6041 27.2748C23.3754 26.0455 21.7092 25.3538 19.9712 25.3516V25.3547Z" fill="#FFB332"/>
        <path d="M19.9712 38.4618C21.653 38.4625 23.2702 37.8144 24.486 36.6524C24.4526 36.6019 24.4012 36.5659 24.3423 36.5516C23.8196 36.422 23.7259 36.0431 23.7212 35.8087C23.7197 35.7481 23.6948 35.6904 23.6516 35.6477C23.1167 36.1724 22.4756 36.5764 21.7715 36.8326C21.0673 37.0887 20.3165 37.1911 19.5695 37.1328C18.8225 37.0745 18.0966 36.8569 17.4407 36.4946C16.7849 36.1323 16.2142 35.6337 15.7671 35.0324C15.3201 34.4312 15.007 33.7411 14.8489 33.0087C14.6908 32.2762 14.6915 31.5185 14.8508 30.7863C15.0101 30.0542 15.3243 29.3646 15.7724 28.7641C16.2205 28.1635 16.792 27.6659 17.4485 27.3048C17.4184 27.2588 17.3739 27.2241 17.3219 27.2063C16.7969 27.0227 16.7829 26.5735 16.8243 26.3141C16.8317 26.2658 16.8238 26.2163 16.8016 26.1727C15.5296 26.8752 14.5272 27.9806 13.9521 29.3151C13.3771 30.6496 13.262 32.1373 13.6249 33.5444C13.9879 34.9514 14.8083 36.1979 15.9572 37.0876C17.106 37.9774 18.5181 38.46 19.9712 38.4595V38.4618Z" fill="#FF9100"/>
        <path d="M19.9712 35.8633C19.7981 35.8631 19.6321 35.7942 19.5096 35.6717C19.3872 35.5493 19.3183 35.3833 19.3181 35.2101V34.3508C19.3181 34.1775 19.3869 34.0114 19.5094 33.8889C19.6319 33.7664 19.798 33.6976 19.9712 33.6976C20.1445 33.6976 20.3106 33.7664 20.4331 33.8889C20.5555 34.0114 20.6244 34.1775 20.6244 34.3508V35.2101C20.6244 35.3834 20.5555 35.5495 20.4331 35.672C20.3106 35.7944 20.1445 35.8633 19.9712 35.8633Z" fill="#FF9100"/>
        <path d="M19.9712 30.0634C19.7981 30.0631 19.6321 29.9943 19.5096 29.8718C19.3872 29.7494 19.3183 29.5834 19.3181 29.4102V28.6071C19.3181 28.4339 19.3869 28.2678 19.5094 28.1453C19.6319 28.0228 19.798 27.954 19.9712 27.954C20.1445 27.954 20.3106 28.0228 20.4331 28.1453C20.5555 28.2678 20.6244 28.4339 20.6244 28.6071V29.4141C20.6233 29.5867 20.5541 29.7518 20.4317 29.8734C20.3093 29.9951 20.1438 30.0634 19.9712 30.0634Z" fill="#FF9100"/>
        <path d="M19.8916 35.0063C19.3026 35.0063 18.9338 34.9375 18.3791 34.575C18.2341 34.4803 18.1327 34.3317 18.0971 34.1621C18.0616 33.9925 18.0949 33.8158 18.1897 33.6707C18.2845 33.5257 18.433 33.4243 18.6026 33.3887C18.7722 33.3532 18.949 33.3865 19.094 33.4813C19.4065 33.686 19.5096 33.7016 19.9385 33.6993C20.0849 33.7007 20.227 33.6493 20.3385 33.5544C20.45 33.4596 20.5235 33.3276 20.5456 33.1829C20.587 32.936 20.4799 32.7649 20.226 32.675L20.2127 32.6704L19.2752 32.3157C18.4323 32.0141 17.9643 31.2297 18.1104 30.3625C18.1849 29.9153 18.4151 29.5089 18.7604 29.2151C19.1057 28.9213 19.5438 28.759 19.9971 28.7571C20.6221 28.7571 20.9932 28.8141 21.5651 29.1883C21.7101 29.2831 21.8116 29.4317 21.8471 29.6012C21.8826 29.7708 21.8493 29.9476 21.7545 30.0926C21.6597 30.2377 21.5112 30.3391 21.3416 30.3746C21.172 30.4102 20.9953 30.3769 20.8502 30.2821C20.5377 30.0766 20.4346 30.061 20.0057 30.0641C19.8593 30.0623 19.7172 30.1135 19.6056 30.2083C19.4941 30.303 19.4206 30.435 19.3987 30.5797C19.3565 30.8274 19.4643 30.9985 19.7182 31.0883L19.7315 31.093L20.669 31.4477C21.512 31.7493 21.9799 32.5336 21.8338 33.4008C21.7591 33.8479 21.5287 34.2542 21.1835 34.5479C20.8383 34.8417 20.4004 35.004 19.9471 35.0063H19.8916Z" fill="#FFB332"/>
        <path d="M26.4221 18.5891H24.1159C23.9397 18.5831 23.7727 18.5089 23.6502 18.3822C23.5277 18.2554 23.4592 18.086 23.4592 17.9098C23.4592 17.7335 23.5277 17.5641 23.6502 17.4374C23.7727 17.3106 23.9397 17.2364 24.1159 17.2305H26.4221C26.5983 17.2364 26.7653 17.3106 26.8878 17.4374C27.0103 17.5641 27.0788 17.7335 27.0788 17.9098C27.0788 18.086 27.0103 18.2554 26.8878 18.3822C26.7653 18.5089 26.5983 18.5831 26.4221 18.5891Z" fill="#49CE8B"/>
        <path d="M4.17592 18.5891H1.87045C1.77931 18.5922 1.68847 18.5769 1.60336 18.5442C1.51824 18.5114 1.44059 18.4619 1.37502 18.3985C1.30945 18.3351 1.2573 18.2592 1.22169 18.1752C1.18608 18.0913 1.16772 18.001 1.16772 17.9098C1.16772 17.8186 1.18608 17.7283 1.22169 17.6444C1.2573 17.5604 1.30945 17.4845 1.37502 17.4211C1.44059 17.3577 1.51824 17.3082 1.60336 17.2754C1.68847 17.2427 1.77931 17.2274 1.87045 17.2305H4.17592C4.26707 17.2274 4.3579 17.2427 4.44302 17.2754C4.52813 17.3082 4.60579 17.3577 4.67136 17.4211C4.73693 17.4845 4.78907 17.5604 4.82468 17.6444C4.8603 17.7283 4.87865 17.8186 4.87865 17.9098C4.87865 18.001 4.8603 18.0913 4.82468 18.1752C4.78907 18.2592 4.73693 18.3351 4.67136 18.3985C4.60579 18.4619 4.52813 18.5114 4.44302 18.5442C4.3579 18.5769 4.26707 18.5922 4.17592 18.5891Z" fill="#36B277"/>
        <path d="M14.1462 22.5196C13.9661 22.5196 13.7935 22.4481 13.6661 22.3208C13.5388 22.1934 13.4673 22.0208 13.4673 21.8407V20.8204C13.4673 20.6403 13.5388 20.4676 13.6661 20.3403C13.7935 20.213 13.9661 20.1415 14.1462 20.1415C14.3262 20.1415 14.4989 20.213 14.6263 20.3403C14.7536 20.4676 14.8251 20.6403 14.8251 20.8204V21.8407C14.8251 22.0208 14.7536 22.1934 14.6263 22.3208C14.4989 22.4481 14.3262 22.5196 14.1462 22.5196Z" fill="#49CE8B"/>
        <path d="M14.1462 15.6141C13.9661 15.6141 13.7935 15.5426 13.6661 15.4153C13.5388 15.2879 13.4673 15.1153 13.4673 14.9352V13.979C13.4673 13.7989 13.5388 13.6262 13.6661 13.4989C13.7935 13.3716 13.9661 13.3 14.1462 13.3C14.3262 13.3 14.4989 13.3716 14.6263 13.4989C14.7536 13.6262 14.8251 13.7989 14.8251 13.979V14.9352C14.8251 15.1153 14.7536 15.2879 14.6263 15.4153C14.4989 15.5426 14.3262 15.6141 14.1462 15.6141Z" fill="#49CE8B"/>
        <path d="M14.0479 21.4992C13.3557 21.4992 12.9471 21.4211 12.3041 21.0015C12.2287 20.9531 12.1636 20.8902 12.1126 20.8164C12.0617 20.7427 12.0258 20.6596 12.0071 20.5719C11.9884 20.4842 11.9873 20.3937 12.0038 20.3056C12.0202 20.2175 12.054 20.1335 12.1031 20.0585C12.1522 19.9835 12.2157 19.9189 12.2899 19.8686C12.364 19.8183 12.4475 19.7831 12.5353 19.7652C12.6231 19.7472 12.7136 19.7469 12.8016 19.7641C12.8896 19.7814 12.9733 19.8158 13.0479 19.8656C13.4385 20.1226 13.5783 20.1429 14.1072 20.1414C14.3045 20.1421 14.4956 20.0723 14.6459 19.9445C14.7962 19.8167 14.8958 19.6393 14.9268 19.4445C14.9596 19.2484 14.9455 18.8976 14.4822 18.7304L14.4682 18.725L13.3502 18.3031C12.3924 17.9609 11.8611 17.0703 12.0268 16.0851C12.1126 15.5763 12.3753 15.1141 12.7684 14.7798C13.1615 14.4456 13.66 14.2607 14.176 14.2578C14.9096 14.2507 15.3244 14.3211 15.9885 14.7547C16.1392 14.8533 16.2446 15.0078 16.2815 15.1841C16.3183 15.3604 16.2836 15.5442 16.185 15.6949C16.0863 15.8456 15.9319 15.951 15.7555 15.9879C15.5792 16.0247 15.3955 15.99 15.2447 15.8914C14.8541 15.6343 14.7127 15.6125 14.1854 15.6156C13.988 15.6145 13.7968 15.6842 13.6464 15.8121C13.496 15.9399 13.3965 16.1175 13.3658 16.3125C13.3322 16.5086 13.3463 16.8593 13.8104 17.0265L13.8244 17.0312L14.9416 17.4539C15.8994 17.7961 16.4315 18.6859 16.2658 19.6711C16.1805 20.1803 15.9181 20.6431 15.5249 20.9778C15.1317 21.3125 14.633 21.4977 14.1166 21.5007L14.0479 21.4992Z" fill="#67E8A4"/>
    </g>
    <defs>
        <clipPath id="clip0">
            <rect width="40" height="40" fill="white"/>
        </clipPath>
    </defs>
</svg>
