<svg width="18" height="17" viewBox="0 0 18 17" fill="none" xmlns="http://www.w3.org/2000/svg">
    <path d="M17.1199 15.5614C15.9537 13.5528 14.0861 12.0463 11.8761 11.3315C12.9348 10.7016 13.7575 9.74154 14.2177 8.5988C14.6779 7.45605 14.7502 6.19383 14.4235 5.006C14.0969 3.81817 13.3893 2.77042 12.4095 2.02369C11.4297 1.27695 10.2318 0.872528 8.99986 0.872528C7.76793 0.872528 6.57007 1.27695 5.59026 2.02369C4.61044 2.77042 3.90287 3.81817 3.57621 5.006C3.24955 6.19383 3.32187 7.45605 3.78207 8.5988C4.24226 9.74154 5.06488 10.7016 6.12357 11.3315C3.91374 12.0463 2.04615 13.5528 0.87993 15.5613C0.824959 15.6563 0.795977 15.7641 0.795899 15.8738C0.79582 15.9836 0.824648 16.0914 0.879483 16.1865C0.934318 16.2816 1.01323 16.3606 1.10827 16.4155C1.20331 16.4704 1.31113 16.4993 1.42089 16.4993L16.5789 16.4994C16.6887 16.4994 16.7965 16.4705 16.8916 16.4156C16.9866 16.3607 17.0655 16.2818 17.1204 16.1867C17.1752 16.0916 17.204 15.9838 17.2039 15.874C17.2039 15.7642 17.1749 15.6564 17.1199 15.5614L17.1199 15.5614Z" fill="#929CA6"/>
</svg>
