<svg width="20" height="20" viewBox="0 0 20 20" fill="none" xmlns="http://www.w3.org/2000/svg">
    <path d="M17.2511 13.7453C16.7875 12.9472 16.2347 11.4327 16.2347 8.75V8.19557C16.2347 4.7358 13.4592 1.90049 10.0475 1.87516C10.0316 1.87508 10.0158 1.875 9.99985 1.875C8.34438 1.87715 6.75757 2.53684 5.58848 3.70893C4.41939 4.88103 3.76378 6.46953 3.76587 8.125V8.75C3.76587 11.4325 3.21282 12.9469 2.74895 13.745C2.63815 13.9348 2.57936 14.1504 2.5785 14.3702C2.57764 14.59 2.63475 14.8061 2.74406 14.9968C2.85338 15.1874 3.01103 15.3459 3.20113 15.4562C3.39123 15.5665 3.60705 15.6247 3.82683 15.625H6.875C6.875 16.4538 7.20424 17.2487 7.7903 17.8347C8.37635 18.4208 9.1712 18.75 10 18.75C10.8288 18.75 11.6237 18.4208 12.2097 17.8347C12.7958 17.2487 13.125 16.4538 13.125 15.625H16.1732C16.3929 15.6247 16.6087 15.5665 16.7988 15.4562C16.9889 15.346 17.1465 15.1875 17.2558 14.9969C17.3651 14.8063 17.4223 14.5902 17.4214 14.3705C17.4206 14.1507 17.3619 13.9351 17.2511 13.7453ZM10 17.5C9.5029 17.4994 9.02631 17.3017 8.67481 16.9502C8.3233 16.5987 8.12557 16.1221 8.125 15.625H11.875C11.8744 16.1221 11.6767 16.5987 11.3252 16.9502C10.9737 17.3017 10.4971 17.4994 10 17.5Z" fill="#1A2734"/>
</svg>
