<svg width="20" height="20" viewBox="0 0 20 20" fill="none" xmlns="http://www.w3.org/2000/svg">
    <path d="M13.75 1.25H6.25C5.75289 1.25057 5.27631 1.4483 4.9248 1.7998C4.5733 2.15131 4.37557 2.62789 4.375 3.125V16.875C4.37557 17.3721 4.5733 17.8487 4.9248 18.2002C5.27631 18.5517 5.75289 18.7494 6.25 18.75H13.75C14.2471 18.7494 14.7237 18.5517 15.0752 18.2002C15.4267 17.8487 15.6244 17.3721 15.625 16.875V3.125C15.6244 2.62789 15.4267 2.15131 15.0752 1.7998C14.7237 1.4483 14.2471 1.25057 13.75 1.25ZM6.25 2.5H13.75C13.9157 2.50019 14.0746 2.5661 14.1917 2.68327C14.3089 2.80044 14.3748 2.9593 14.375 3.125V3.75H5.625V3.125C5.62519 2.9593 5.6911 2.80044 5.80827 2.68327C5.92544 2.5661 6.0843 2.50019 6.25 2.5ZM13.75 17.5H6.25C6.0843 17.4998 5.92544 17.4339 5.80827 17.3167C5.6911 17.1996 5.62519 17.0407 5.625 16.875V16.25H14.375V16.875C14.3748 17.0407 14.3089 17.1996 14.1917 17.3167C14.0746 17.4339 13.9157 17.4998 13.75 17.5Z" fill="#929CA6"/>
</svg>
