<svg width="20" height="20" viewBox="0 0 20 20" fill="none" xmlns="http://www.w3.org/2000/svg">
    <path fill-rule="evenodd" clip-rule="evenodd" d="M17.6548 16.3993C19.2512 14.4941 20.0717 12.0974 19.9731 9.59659C19.7559 4.09219 15.1006 -0.209312 9.59667 0.0078759C6.92997 0.11303 4.46425 1.25057 2.65304 3.21017C0.842317 5.16978 -0.0971937 7.71806 0.00796077 10.3843C0.113115 13.051 1.25065 15.5167 3.21026 17.3274C3.41066 17.5126 3.6172 17.6887 3.82938 17.8555C4.96015 18.7488 6.27468 19.3886 7.68571 19.7263C8.44882 19.9091 9.22667 20 10.0035 20C11.0433 20 12.0816 19.8369 13.08 19.5121C14.8249 18.9455 16.3777 17.9092 17.5702 16.5152C17.6017 16.4785 17.6299 16.4397 17.6548 16.3993ZM16.961 14.2104C17.7848 12.856 18.194 11.2894 18.1299 9.66931C17.9569 5.29017 14.3389 1.84513 9.99469 1.84513C9.88658 1.84513 9.77848 1.8471 9.66939 1.85152C7.49555 1.93751 5.48484 2.86474 4.00825 4.46269C2.53167 6.06065 1.76561 8.13818 1.8516 10.312C1.9157 11.9324 2.44718 13.4621 3.37542 14.7475C3.99354 13.8477 4.97559 13.0825 6.21502 12.5399C5.70497 11.9316 5.34578 11.2004 5.1792 10.4029C4.88388 8.99318 5.22244 7.53281 6.10839 6.39675C6.99385 5.26069 8.32696 4.57571 9.76669 4.51822C11.2064 4.46023 12.5901 5.03613 13.564 6.0975C14.5379 7.15887 14.9925 8.5873 14.8112 10.0162C14.708 10.828 14.4068 11.5881 13.9444 12.2372C15.2204 12.6831 16.2642 13.3673 16.961 14.2104ZM15.7799 15.721C15.1905 14.724 13.7661 13.9299 11.9739 13.6357C11.598 13.5738 11.2988 13.2878 11.2207 12.9149C11.1425 12.5419 11.3017 12.1596 11.6211 11.9518C12.3729 11.4633 12.8692 10.6732 12.9818 9.78282C13.0943 8.89343 12.8113 8.00404 12.2054 7.34314C11.599 6.68224 10.7376 6.32402 9.84138 6.36039C8.94511 6.39626 8.11517 6.82277 7.56385 7.52986C7.01252 8.23744 6.80172 9.146 6.9855 10.0241C7.16927 10.9022 7.72699 11.65 8.51564 12.0766C8.85175 12.2584 9.04093 12.6284 8.99179 13.0072C8.94265 13.3861 8.66453 13.6952 8.29305 13.7846C6.54523 14.2062 5.17036 15.1295 4.68291 16.1668C4.82422 16.2895 4.96949 16.4071 5.11845 16.5195C6.60991 17.6369 8.42508 18.2049 10.3121 18.1298C12.3925 18.0475 14.3235 17.1948 15.7799 15.721Z" fill="white"/>
</svg>
