<svg width="20" height="20" viewBox="0 0 20 20" fill="none" xmlns="http://www.w3.org/2000/svg">
    <path d="M12.5002 1.25C11.5137 1.25072 10.5414 1.48477 9.66265 1.93304C8.78389 2.38132 8.02363 3.0311 7.44395 3.82932C6.86428 4.62753 6.48164 5.55155 6.32728 6.52589C6.17292 7.50024 6.25123 8.49728 6.5558 9.43558L2.05827 13.933C1.94108 14.0503 1.87525 14.2092 1.87524 14.375V17.5C1.87525 17.6658 1.9411 17.8247 2.05831 17.9419C2.17552 18.0591 2.33449 18.125 2.50024 18.125H5.62524C5.791 18.125 5.94997 18.0591 6.06718 17.9419C6.18439 17.8247 6.25024 17.6658 6.25024 17.5V16.25H7.50024C7.666 16.25 7.82497 16.1841 7.94218 16.0669C8.05939 15.9497 8.12524 15.7908 8.12524 15.625V14.375H9.37524C9.54101 14.375 9.69998 14.3092 9.81721 14.192L10.5647 13.4444C11.424 13.7242 12.3337 13.8142 13.2311 13.7085C14.1286 13.6027 14.9924 13.3036 15.7632 12.8318C16.5339 12.36 17.1931 11.7266 17.6955 10.9755C18.1978 10.2243 18.5313 9.3731 18.673 8.48061C18.8146 7.58811 18.7611 6.67551 18.516 5.8057C18.271 4.93589 17.8403 4.12956 17.2535 3.44227C16.6668 2.75498 15.938 2.20309 15.1174 1.82462C14.2968 1.44615 13.4039 1.2501 12.5002 1.25ZM14.0626 7.1875C13.8153 7.1875 13.5737 7.11419 13.3681 6.97684C13.1625 6.83949 13.0023 6.64426 12.9077 6.41585C12.8131 6.18745 12.7883 5.93611 12.8366 5.69364C12.8848 5.45116 13.0039 5.22843 13.1787 5.05362C13.3535 4.8788 13.5762 4.75975 13.8187 4.71152C14.0612 4.66329 14.3125 4.68804 14.5409 4.78265C14.7693 4.87726 14.9645 5.03748 15.1019 5.24304C15.2392 5.4486 15.3126 5.69027 15.3126 5.9375C15.3126 6.26902 15.1809 6.58696 14.9464 6.82138C14.712 7.0558 14.3941 7.1875 14.0626 7.1875Z" fill="#929CA6"/>
</svg>
