<svg width="16" height="15" viewBox="0 0 16 15" fill="none" xmlns="http://www.w3.org/2000/svg">
    <path d="M4.97548 10.3757L7.42857 12.9515V6.6C7.42857 6.44087 7.48878 6.28826 7.59594 6.17574C7.7031 6.06321 7.84845 6 8 6C8.15155 6 8.2969 6.06321 8.40406 6.17574C8.51123 6.28826 8.57143 6.44087 8.57143 6.6V12.9515L11.0245 10.3757C11.1317 10.2632 11.277 10.2 11.4286 10.2C11.5802 10.2 11.7255 10.2632 11.8327 10.3757C11.9398 10.4883 12 10.6409 12 10.8C12 10.9592 11.9398 11.1118 11.8326 11.2243L8.40405 14.8243C8.40241 14.826 8.40063 14.8274 8.399 14.8291C8.38721 14.8412 8.37504 14.8529 8.36227 14.864C8.3554 14.8699 8.34814 14.875 8.3411 14.8805C8.33322 14.8867 8.32551 14.8931 8.31731 14.8989C8.30919 14.9046 8.30071 14.9096 8.29238 14.9148C8.2847 14.9197 8.27721 14.9247 8.26929 14.9291C8.26102 14.9338 8.25248 14.9377 8.24404 14.9419C8.23556 14.9461 8.22719 14.9506 8.21851 14.9544C8.21052 14.9578 8.20239 14.9606 8.1943 14.9636C8.18478 14.9673 8.17536 14.9711 8.1656 14.9742C8.15782 14.9767 8.1499 14.9784 8.14202 14.9806C8.13184 14.9833 8.12176 14.9863 8.11133 14.9884C8.10268 14.9902 8.09393 14.9913 8.08524 14.9926C8.07551 14.9941 8.06588 14.996 8.05601 14.997C8.04158 14.9985 8.0271 14.999 8.01263 14.9993C8.00841 14.9994 8.00426 15 8 15C7.99575 15 7.99159 14.9994 7.98737 14.9993C7.9729 14.999 7.95843 14.9985 7.94399 14.997C7.93412 14.996 7.92449 14.9941 7.91476 14.9926C7.90608 14.9912 7.89732 14.9902 7.88867 14.9884C7.87824 14.9863 7.86816 14.9833 7.85798 14.9806C7.8501 14.9784 7.84218 14.9767 7.8344 14.9742C7.82464 14.9711 7.81522 14.9673 7.8057 14.9636C7.79761 14.9606 7.78948 14.9578 7.78149 14.9544C7.77281 14.9506 7.76444 14.9461 7.75596 14.9419C7.74752 14.9377 7.73898 14.9338 7.73071 14.9291C7.7228 14.9247 7.7153 14.9196 7.70762 14.9148C7.69929 14.9096 7.69081 14.9046 7.68269 14.8989C7.67449 14.8931 7.66678 14.8867 7.6589 14.8805C7.65186 14.875 7.6446 14.8698 7.63773 14.8639C7.62518 14.8531 7.61325 14.8416 7.60163 14.8297C7.59978 14.8278 7.59776 14.8262 7.59595 14.8243L4.16738 11.2243C4.06034 11.1117 4.00024 10.9592 4.00028 10.8001C4.00033 10.6411 4.06053 10.4885 4.16764 10.3761C4.27475 10.2636 4.42001 10.2004 4.57149 10.2003C4.72297 10.2002 4.86828 10.2633 4.97548 10.3757Z" fill="white"/>
    <path d="M14.8571 7.2H9.71429V6.6C9.71429 6.12261 9.53367 5.66477 9.21218 5.32721C8.89069 4.98964 8.45466 4.8 8 4.8C7.54534 4.8 7.10931 4.98964 6.78782 5.32721C6.46633 5.66477 6.28571 6.12261 6.28571 6.6V7.2H1.14286C0.839859 7.19964 0.54937 7.07309 0.335118 6.84813C0.120866 6.62316 0.000346527 6.31815 0 6V1.2C0.000346527 0.881851 0.120866 0.576838 0.335118 0.351873C0.54937 0.126908 0.839859 0.00036335 1.14286 -9.53674e-07H14.8571C15.1601 0.00036335 15.4506 0.126908 15.6649 0.351873C15.8791 0.576838 15.9997 0.881851 16 1.2V6C15.9997 6.31815 15.8791 6.62316 15.6649 6.84813C15.4506 7.07309 15.1601 7.19964 14.8571 7.2ZM12.2857 2.7C12.1162 2.7 11.9505 2.75278 11.8095 2.85168C11.6686 2.95057 11.5587 3.09113 11.4939 3.25558C11.429 3.42004 11.412 3.601 11.4451 3.77558C11.4781 3.95016 11.5598 4.11053 11.6797 4.23639C11.7995 4.36226 11.9523 4.44798 12.1185 4.48271C12.2848 4.51743 12.4571 4.49961 12.6138 4.43149C12.7704 4.36337 12.9043 4.24802 12.9984 4.10001C13.0926 3.95201 13.1429 3.778 13.1429 3.6C13.1429 3.3613 13.0526 3.13239 12.8918 2.9636C12.7311 2.79482 12.5131 2.7 12.2857 2.7Z" fill="white"/>
</svg>
