<svg width="18" height="18" viewBox="0 0 18 18" fill="none" xmlns="http://www.w3.org/2000/svg">
    <mask id="path-1-outside-1_27_287" maskUnits="userSpaceOnUse" x="0" y="0" width="18" height="18" fill="black">
        <rect fill="white" width="18" height="18"/>
        <path fill-rule="evenodd" clip-rule="evenodd" d="M15.7197 1H2.91996C2.41053 1 1.92231 1.20224 1.56246 1.56246C1.20224 1.92231 1 2.41053 1 2.91996V15.0797C1 15.5891 1.20224 16.0773 1.56246 16.4375C1.92268 16.7974 2.41089 17 2.92032 17H15.72C16.2295 17 16.7177 16.7978 17.0779 16.4375C17.4378 16.0773 17.6404 15.5891 17.6404 15.0797V2.91996C17.6404 2.41053 17.4381 1.92231 17.0779 1.56209C16.7173 1.20224 16.2291 1 15.7197 1ZM16.3596 15.0797C16.3596 15.2494 16.2924 15.4121 16.172 15.5324C16.0517 15.6527 15.8894 15.72 15.7193 15.72H2.91959C2.7499 15.72 2.58716 15.6527 2.46685 15.5324C2.34653 15.4121 2.27997 15.2494 2.27997 15.0797V2.91996C2.27997 2.75027 2.34726 2.58753 2.46758 2.46721C2.5879 2.34689 2.75027 2.27997 2.91996 2.27997H15.7197C15.8894 2.27997 16.0521 2.34726 16.1724 2.46758C16.2927 2.5879 16.3596 2.75027 16.3596 2.91996V15.0797ZM12.9471 8.03983C13.1757 8.03983 13.3871 7.91769 13.5015 7.71984C13.616 7.52199 13.616 7.2777 13.5015 7.07985C13.3871 6.88201 13.1761 6.75986 12.9471 6.75986H7.63058L8.45927 5.93117C8.62092 5.76953 8.68418 5.53365 8.62494 5.31276C8.56569 5.09188 8.39308 4.91926 8.17219 4.86002C7.95131 4.80077 7.71543 4.86404 7.55379 5.02568L5.63383 6.94564C5.51315 7.06559 5.44476 7.22833 5.44439 7.39838C5.44403 7.56844 5.51132 7.73191 5.63164 7.85222C5.75195 7.97254 5.91506 8.0402 6.08511 8.0402L12.9471 8.03983ZM6.08465 10.2798H12.9467C13.1167 10.2798 13.2802 10.3471 13.4002 10.4674C13.5205 10.5877 13.5878 10.7512 13.5874 10.9212C13.587 11.0913 13.5186 11.254 13.398 11.374L11.478 13.2939C11.3164 13.4556 11.0805 13.5188 10.8596 13.4596C10.6387 13.4004 10.4661 13.2277 10.4068 13.0069C10.3476 12.786 10.4109 12.5501 10.5725 12.3884L11.4012 11.5598H6.08465C5.85572 11.5598 5.64471 11.4376 5.53024 11.2398C5.41578 11.0419 5.41578 10.7976 5.53024 10.5998C5.64471 10.4019 5.85609 10.2798 6.08465 10.2798Z"/>
    </mask>
    <path fill-rule="evenodd" clip-rule="evenodd" d="M15.7197 1H2.91996C2.41053 1 1.92231 1.20224 1.56246 1.56246C1.20224 1.92231 1 2.41053 1 2.91996V15.0797C1 15.5891 1.20224 16.0773 1.56246 16.4375C1.92268 16.7974 2.41089 17 2.92032 17H15.72C16.2295 17 16.7177 16.7978 17.0779 16.4375C17.4378 16.0773 17.6404 15.5891 17.6404 15.0797V2.91996C17.6404 2.41053 17.4381 1.92231 17.0779 1.56209C16.7173 1.20224 16.2291 1 15.7197 1ZM16.3596 15.0797C16.3596 15.2494 16.2924 15.4121 16.172 15.5324C16.0517 15.6527 15.8894 15.72 15.7193 15.72H2.91959C2.7499 15.72 2.58716 15.6527 2.46685 15.5324C2.34653 15.4121 2.27997 15.2494 2.27997 15.0797V2.91996C2.27997 2.75027 2.34726 2.58753 2.46758 2.46721C2.5879 2.34689 2.75027 2.27997 2.91996 2.27997H15.7197C15.8894 2.27997 16.0521 2.34726 16.1724 2.46758C16.2927 2.5879 16.3596 2.75027 16.3596 2.91996V15.0797ZM12.9471 8.03983C13.1757 8.03983 13.3871 7.91769 13.5015 7.71984C13.616 7.52199 13.616 7.2777 13.5015 7.07985C13.3871 6.88201 13.1761 6.75986 12.9471 6.75986H7.63058L8.45927 5.93117C8.62092 5.76953 8.68418 5.53365 8.62494 5.31276C8.56569 5.09188 8.39308 4.91926 8.17219 4.86002C7.95131 4.80077 7.71543 4.86404 7.55379 5.02568L5.63383 6.94564C5.51315 7.06559 5.44476 7.22833 5.44439 7.39838C5.44403 7.56844 5.51132 7.73191 5.63164 7.85222C5.75195 7.97254 5.91506 8.0402 6.08511 8.0402L12.9471 8.03983ZM6.08465 10.2798H12.9467C13.1167 10.2798 13.2802 10.3471 13.4002 10.4674C13.5205 10.5877 13.5878 10.7512 13.5874 10.9212C13.587 11.0913 13.5186 11.254 13.398 11.374L11.478 13.2939C11.3164 13.4556 11.0805 13.5188 10.8596 13.4596C10.6387 13.4004 10.4661 13.2277 10.4068 13.0069C10.3476 12.786 10.4109 12.5501 10.5725 12.3884L11.4012 11.5598H6.08465C5.85572 11.5598 5.64471 11.4376 5.53024 11.2398C5.41578 11.0419 5.41578 10.7976 5.53024 10.5998C5.64471 10.4019 5.85609 10.2798 6.08465 10.2798Z" fill="white"/>
    <path d="M1.56246 1.56246L1.70381 1.70395L1.70395 1.70381L1.56246 1.56246ZM1.56246 16.4375L1.42103 16.579L1.42111 16.579L1.56246 16.4375ZM17.0779 16.4375L17.2193 16.579L17.2194 16.5789L17.0779 16.4375ZM17.0779 1.56209L17.2193 1.42067L17.2192 1.42053L17.0779 1.56209ZM16.172 15.5324L16.3135 15.6738L16.3135 15.6738L16.172 15.5324ZM2.46685 15.5324L2.32543 15.6738H2.32543L2.46685 15.5324ZM2.46758 2.46721L2.32616 2.32579V2.32579L2.46758 2.46721ZM16.1724 2.46758L16.3138 2.32616V2.32616L16.1724 2.46758ZM13.5015 7.71984L13.3284 7.61968L13.3284 7.61968L13.5015 7.71984ZM12.9471 8.03983V7.83983H12.9471L12.9471 8.03983ZM13.5015 7.07985L13.3284 7.18001L13.3284 7.18001L13.5015 7.07985ZM7.63058 6.75986L7.48916 6.61844L7.14774 6.95986H7.63058V6.75986ZM8.45927 5.93117L8.31785 5.78975L8.45927 5.93117ZM8.62494 5.31276L8.81811 5.26095V5.26095L8.62494 5.31276ZM8.17219 4.86002L8.22401 4.66685L8.17219 4.86002ZM5.63383 6.94564L5.77482 7.08749L5.77525 7.08706L5.63383 6.94564ZM5.44439 7.39838L5.64439 7.39881L5.44439 7.39838ZM5.63164 7.85222L5.49021 7.99365L5.49021 7.99365L5.63164 7.85222ZM6.08511 8.0402V8.2402H6.08512L6.08511 8.0402ZM13.4002 10.4674L13.2585 10.6086L13.2587 10.6088L13.4002 10.4674ZM13.5874 10.9212L13.3874 10.9208V10.9208L13.5874 10.9212ZM13.398 11.374L13.257 11.2321L13.2565 11.2326L13.398 11.374ZM11.478 13.2939L11.3366 13.1525L11.478 13.2939ZM10.8596 13.4596L10.9114 13.2664L10.8596 13.4596ZM10.4068 13.0069L10.6 12.955V12.955L10.4068 13.0069ZM11.4012 11.5598L11.5426 11.7012L11.884 11.3598H11.4012V11.5598ZM5.53024 11.2398L5.35713 11.3399H5.35713L5.53024 11.2398ZM5.53024 10.5998L5.70336 10.6999L5.53024 10.5998ZM2.91996 1.2H15.7197V0.8H2.91996V1.2ZM1.70395 1.70381C2.02625 1.38117 2.46356 1.2 2.91996 1.2V0.8C2.3575 0.8 1.81837 1.0233 1.42096 1.42111L1.70395 1.70381ZM1.2 2.91996C1.2 2.46356 1.38117 2.02625 1.70381 1.70395L1.42111 1.42096C1.0233 1.81837 0.8 2.3575 0.8 2.91996H1.2ZM1.2 15.0797V2.91996H0.8V15.0797H1.2ZM1.70388 16.2961C1.38116 15.9734 1.2 15.5361 1.2 15.0797H0.8C0.8 15.6422 1.02331 16.1812 1.42103 16.579L1.70388 16.2961ZM2.92032 16.8C2.46403 16.8 2.02661 16.6185 1.70381 16.2961L1.42111 16.579C1.81874 16.9763 2.35776 17.2 2.92032 17.2V16.8ZM15.72 16.8H2.92032V17.2H15.72V16.8ZM16.9365 16.2961C16.6138 16.6188 16.1764 16.8 15.72 16.8V17.2C16.2825 17.2 16.8216 16.9767 17.2193 16.579L16.9365 16.2961ZM17.4403 15.0797C17.4403 15.536 17.2589 15.9734 16.9364 16.2962L17.2194 16.5789C17.6166 16.1813 17.8404 15.6422 17.8404 15.0797H17.4403ZM17.4403 2.91996V15.0797H17.8404V2.91996H17.4403ZM16.9365 1.70351C17.2592 2.02623 17.4403 2.46357 17.4403 2.91996H17.8404C17.8404 2.35748 17.617 1.81839 17.2193 1.42067L16.9365 1.70351ZM15.7197 1.2C16.176 1.2 16.6135 1.38116 16.9366 1.70365L17.2192 1.42053C16.8211 1.02331 16.2821 0.8 15.7197 0.8V1.2ZM16.3135 15.6738C16.4713 15.516 16.5596 15.3024 16.5596 15.0797H16.1596C16.1596 15.1963 16.1134 15.3082 16.0306 15.391L16.3135 15.6738ZM15.7193 15.92C15.9424 15.92 16.1557 15.8316 16.3135 15.6738L16.0306 15.391C15.9478 15.4738 15.8363 15.52 15.7193 15.52V15.92ZM2.91959 15.92H15.7193V15.52H2.91959V15.92ZM2.32543 15.6738C2.48326 15.8317 2.69688 15.92 2.91959 15.92V15.52C2.80293 15.52 2.69107 15.4738 2.60827 15.391L2.32543 15.6738ZM2.07997 15.0797C2.07997 15.3018 2.16717 15.5156 2.32543 15.6738L2.60827 15.391C2.52588 15.3086 2.47997 15.1969 2.47997 15.0797H2.07997ZM2.07997 2.91996V15.0797H2.47997V2.91996H2.07997ZM2.32616 2.32579C2.16832 2.48363 2.07997 2.69724 2.07997 2.91996H2.47997C2.47997 2.80329 2.5262 2.69143 2.609 2.60863L2.32616 2.32579ZM2.91996 2.07997C2.69741 2.07997 2.48412 2.16783 2.32616 2.32579L2.609 2.60863C2.69168 2.52596 2.80312 2.47997 2.91996 2.47997V2.07997ZM15.7197 2.07997H2.91996V2.47997H15.7197V2.07997ZM16.3138 2.32616C16.156 2.16832 15.9424 2.07997 15.7197 2.07997V2.47997C15.8363 2.47997 15.9482 2.5262 16.031 2.609L16.3138 2.32616ZM16.5596 2.91996C16.5596 2.69741 16.4718 2.48412 16.3138 2.32616L16.031 2.609C16.1137 2.69168 16.1596 2.80312 16.1596 2.91996H16.5596ZM16.5596 15.0797V2.91996H16.1596V15.0797H16.5596ZM13.3284 7.61968C13.2496 7.75586 13.1042 7.83983 12.9471 7.83983V8.23983C13.2472 8.23983 13.5245 8.07951 13.6747 7.82L13.3284 7.61968ZM13.3284 7.18001C13.4071 7.3159 13.4071 7.4838 13.3284 7.61968L13.6747 7.82C13.825 7.56019 13.825 7.2395 13.6747 6.9797L13.3284 7.18001ZM12.9471 6.95986C13.1045 6.95986 13.2496 7.04378 13.3284 7.18001L13.6747 6.9797C13.5245 6.72024 13.2477 6.55986 12.9471 6.55986V6.95986ZM7.63058 6.95986H12.9471V6.55986H7.63058V6.95986ZM8.31785 5.78975L7.48916 6.61844L7.77201 6.90128L8.6007 6.07259L8.31785 5.78975ZM8.43177 5.36457C8.47248 5.51639 8.42899 5.67861 8.31785 5.78975L8.6007 6.07259C8.81284 5.86045 8.89588 5.55091 8.81811 5.26095L8.43177 5.36457ZM8.12038 5.05319C8.27229 5.09393 8.39102 5.21267 8.43177 5.36457L8.81811 5.26095C8.74037 4.97109 8.51387 4.74459 8.22401 4.66685L8.12038 5.05319ZM7.69521 5.16711C7.80635 5.05597 7.96857 5.01247 8.12038 5.05319L8.22401 4.66685C7.93404 4.58908 7.62451 4.67212 7.41236 4.88426L7.69521 5.16711ZM5.77525 7.08706L7.69521 5.16711L7.41236 4.88426L5.49241 6.80422L5.77525 7.08706ZM5.64439 7.39881C5.64464 7.28227 5.69152 7.17029 5.77482 7.08749L5.49284 6.80379C5.33478 6.96089 5.24488 7.17439 5.2444 7.39795L5.64439 7.39881ZM5.77306 7.7108C5.69046 7.62821 5.64414 7.51583 5.64439 7.39881L5.2444 7.39795C5.24392 7.62104 5.33217 7.83561 5.49021 7.99365L5.77306 7.7108ZM6.08511 7.8402C5.96819 7.8402 5.85593 7.79368 5.77306 7.7108L5.49021 7.99365C5.64797 8.1514 5.86192 8.2402 6.08511 8.2402V7.8402ZM12.9471 7.83983L6.0851 7.8402L6.08512 8.2402L12.9471 8.23983L12.9471 7.83983ZM12.9467 10.0798H6.08465V10.4798H12.9467V10.0798ZM13.5418 10.3262C13.384 10.1679 13.1694 10.0798 12.9467 10.0798V10.4798C13.0641 10.4798 13.1764 10.5263 13.2585 10.6086L13.5418 10.3262ZM13.7874 10.9217C13.7879 10.6986 13.6996 10.484 13.5416 10.326L13.2587 10.6088C13.3413 10.6914 13.3876 10.8038 13.3874 10.9208L13.7874 10.9217ZM13.5389 11.5158C13.697 11.3587 13.7869 11.1452 13.7874 10.9217L13.3874 10.9208C13.3871 11.0374 13.3403 11.1493 13.257 11.2321L13.5389 11.5158ZM11.6194 13.4354L13.5394 11.5154L13.2565 11.2326L11.3366 13.1525L11.6194 13.4354ZM10.8078 13.6528C11.0977 13.7305 11.4073 13.6475 11.6194 13.4354L11.3366 13.1525C11.2254 13.2636 11.0632 13.3071 10.9114 13.2664L10.8078 13.6528ZM10.2137 13.0587C10.2914 13.3485 10.5179 13.575 10.8078 13.6528L10.9114 13.2664C10.7595 13.2257 10.6408 13.107 10.6 12.955L10.2137 13.0587ZM10.4311 12.247C10.2189 12.4592 10.1359 12.7687 10.2137 13.0587L10.6 12.955C10.5593 12.8032 10.6028 12.641 10.7139 12.5299L10.4311 12.247ZM11.2598 11.4183L10.4311 12.247L10.7139 12.5299L11.5426 11.7012L11.2598 11.4183ZM6.08465 11.7598H11.4012V11.3598H6.08465V11.7598ZM5.35713 11.3399C5.50724 11.5994 5.78413 11.7598 6.08465 11.7598V11.3598C5.92732 11.3598 5.78218 11.2758 5.70336 11.1396L5.35713 11.3399ZM5.35713 10.4996C5.20681 10.7594 5.20682 11.0801 5.35713 11.3399L5.70336 11.1396C5.62474 11.0037 5.62474 10.8358 5.70336 10.6999L5.35713 10.4996ZM6.08465 10.0798C5.78456 10.0798 5.50727 10.2401 5.35713 10.4996L5.70336 10.6999C5.78214 10.5638 5.92762 10.4798 6.08465 10.4798V10.0798Z" fill="white" mask="url(#path-1-outside-1_27_287)"/>
</svg>
