<svg width="16" height="15" viewBox="0 0 16 15" fill="none" xmlns="http://www.w3.org/2000/svg">
    <path d="M4.97548 4.62429L7.42857 2.04851V8.4C7.42857 8.55913 7.48878 8.71174 7.59594 8.82426C7.7031 8.93679 7.84845 9 8 9C8.15155 9 8.2969 8.93679 8.40406 8.82426C8.51123 8.71174 8.57143 8.55913 8.57143 8.4V2.04851L11.0245 4.62429C11.1317 4.73681 11.277 4.80002 11.4286 4.80001C11.5802 4.80001 11.7255 4.73678 11.8327 4.62426C11.9398 4.51173 12 4.35911 12 4.19997C12 4.04084 11.9398 3.88823 11.8326 3.77571L8.40405 0.175708C8.40241 0.174023 8.40063 0.172595 8.399 0.170908C8.38721 0.158823 8.37504 0.147067 8.36227 0.136044C8.3554 0.130148 8.34814 0.124984 8.3411 0.119455C8.33322 0.113266 8.32551 0.106855 8.31731 0.101072C8.30919 0.095358 8.30071 0.0904148 8.29238 0.0851775C8.2847 0.0803438 8.27721 0.0752903 8.26929 0.0708585C8.26102 0.0662085 8.25248 0.0622898 8.24404 0.0580778C8.23556 0.0538665 8.22719 0.0494355 8.21851 0.0456277C8.21052 0.0421852 8.20239 0.0394028 8.1943 0.0363623C8.18478 0.0327368 8.17536 0.0288915 8.1656 0.0258157C8.15782 0.0233257 8.1499 0.0215678 8.14202 0.0194408C8.13184 0.0166943 8.12176 0.0137279 8.11133 0.0115657C8.10268 0.00977094 8.09393 0.0087457 8.08524 0.00739045C8.07551 0.00585295 8.06588 0.00398469 8.05601 0.00295944C8.04158 0.00149469 8.0271 0.000981706 8.01263 0.000652456C8.00841 0.000585706 8.00426 0 8 0C7.99575 0 7.99159 0.00058568 7.98737 0.00065918C7.9729 0.00098843 7.95843 0.00150156 7.94399 0.00296631C7.93412 0.00399156 7.92449 0.00585982 7.91476 0.00739732C7.90608 0.00875257 7.89732 0.0097778 7.88867 0.0115726C7.87824 0.0137333 7.86816 0.0166995 7.85798 0.0194475C7.8501 0.0215715 7.84218 0.0233294 7.8344 0.0258224C7.82464 0.0288974 7.81522 0.0327435 7.8057 0.036369C7.79761 0.0394088 7.78948 0.042192 7.78149 0.0456345C7.77281 0.049443 7.76444 0.053874 7.75596 0.0580845C7.74752 0.0622965 7.73898 0.0662145 7.73071 0.0708653C7.7228 0.075297 7.7153 0.0803505 7.70762 0.0851842C7.69929 0.0904215 7.69081 0.0953647 7.68269 0.101078C7.67449 0.106864 7.66678 0.113272 7.6589 0.119461C7.65186 0.124991 7.6446 0.130155 7.63773 0.136051C7.62518 0.146891 7.61325 0.158426 7.60163 0.170326C7.59978 0.172193 7.59776 0.173804 7.59595 0.175708L4.16738 3.77571C4.06034 3.88826 4.00024 4.04083 4.00028 4.19988C4.00033 4.35894 4.06053 4.51147 4.16764 4.62394C4.27475 4.73642 4.42001 4.79964 4.57149 4.7997C4.72297 4.79977 4.86828 4.73668 4.97548 4.62429Z" fill="white"/>
    <path d="M14.8571 7.8H9.71429V8.4C9.71429 8.87739 9.53367 9.33523 9.21218 9.67279C8.89069 10.0104 8.45466 10.2 8 10.2C7.54534 10.2 7.10931 10.0104 6.78782 9.67279C6.46633 9.33523 6.28571 8.87739 6.28571 8.4V7.8H1.14286C0.839859 7.80036 0.54937 7.92691 0.335118 8.15187C0.120866 8.37684 0.000346527 8.68185 0 9V13.8C0.000346527 14.1181 0.120866 14.4232 0.335118 14.6481C0.54937 14.8731 0.839859 14.9996 1.14286 15H14.8571C15.1601 14.9996 15.4506 14.8731 15.6649 14.6481C15.8791 14.4232 15.9997 14.1181 16 13.8V9C15.9997 8.68185 15.8791 8.37684 15.6649 8.15187C15.4506 7.92691 15.1601 7.80036 14.8571 7.8ZM12.2857 12.3C12.1162 12.3 11.9505 12.2472 11.8095 12.1483C11.6686 12.0494 11.5587 11.9089 11.4939 11.7444C11.429 11.58 11.412 11.399 11.4451 11.2244C11.4781 11.0498 11.5598 10.8895 11.6797 10.7636C11.7995 10.6377 11.9523 10.552 12.1185 10.5173C12.2848 10.4826 12.4571 10.5004 12.6138 10.5685C12.7704 10.6366 12.9043 10.752 12.9984 10.9C13.0926 11.048 13.1429 11.222 13.1429 11.4C13.1429 11.6387 13.0526 11.8676 12.8918 12.0364C12.7311 12.2052 12.5131 12.3 12.2857 12.3Z" fill="white"/>
</svg>
