<svg width="4" height="12" viewBox="0 0 4 12" fill="none" xmlns="http://www.w3.org/2000/svg">
<path d="M3.53125 6C3.53125 6.30285 3.44144 6.59891 3.27319 6.85072C3.10493 7.10253 2.86578 7.29879 2.58598 7.41469C2.30619 7.53059 1.9983 7.56091 1.70127 7.50183C1.40424 7.44274 1.13139 7.29691 0.917244 7.08276C0.703095 6.86861 0.557257 6.59577 0.498173 6.29873C0.43909 6.0017 0.469413 5.69382 0.58531 5.41402C0.701207 5.13422 0.897471 4.89507 1.14928 4.72681C1.4011 4.55856 1.69715 4.46875 2 4.46875C2.40599 4.46915 2.79524 4.63061 3.08232 4.91769C3.36939 5.20476 3.53085 5.59401 3.53125 6ZM2 3.15625C2.30285 3.15625 2.59891 3.06644 2.85072 2.89819C3.10253 2.72993 3.29879 2.49078 3.41469 2.21098C3.53059 1.93119 3.56091 1.6233 3.50183 1.32627C3.44275 1.02924 3.29691 0.756393 3.08276 0.542243C2.86861 0.328094 2.59577 0.182257 2.29873 0.123173C2.0017 0.0640896 1.69382 0.0944135 1.41402 0.21031C1.13422 0.326207 0.895069 0.522471 0.726813 0.774284C0.558557 1.0261 0.468751 1.32215 0.468751 1.625C0.469152 2.03099 0.630608 2.42024 0.917686 2.70732C1.20476 2.99439 1.59401 3.15585 2 3.15625ZM2 8.84375C1.69715 8.84375 1.4011 8.93356 1.14928 9.10181C0.897471 9.27007 0.701207 9.50922 0.58531 9.78902C0.469413 10.0688 0.43909 10.3767 0.498173 10.6737C0.557257 10.9708 0.703095 11.2436 0.917244 11.4578C1.13139 11.6719 1.40424 11.8177 1.70127 11.8768C1.9983 11.9359 2.30619 11.9056 2.58598 11.7897C2.86578 11.6738 3.10493 11.4775 3.27319 11.2257C3.44144 10.9739 3.53125 10.6779 3.53125 10.375C3.53085 9.96901 3.36939 9.57976 3.08232 9.29269C2.79524 9.00561 2.40599 8.84415 2 8.84375Z" fill="black"/>
</svg>
