<svg width="20" height="12" viewBox="0 0 20 12" fill="none" xmlns="http://www.w3.org/2000/svg">
    <g clip-path="url(#clip0)">
        <path d="M10.0392 1.27371C10.1812 1.12769 10.3596 1.02935 10.531 0.923338C11.1821 0.521894 11.9058 0.245161 12.6634 0.107982C13.321 -0.0159997 13.9952 -0.0331091 14.6586 0.0573466C15.6778 0.197271 16.6102 0.554653 17.4482 1.14441C18.1118 1.60917 18.6725 2.19954 19.0966 2.88024C19.547 3.5948 19.8368 4.39427 19.9469 5.22594C20.0342 5.86873 20.0139 6.52106 19.8868 7.15752C19.7619 7.78643 19.5314 8.39094 19.2045 8.9467C18.8594 9.54048 18.4125 10.0723 17.8832 10.5191C17.0909 11.1855 16.1847 11.6342 15.1602 11.8528C14.1903 12.0621 13.1829 12.0416 12.2228 11.7931C11.4064 11.5851 10.6668 11.2176 9.99767 10.7162C9.99764 10.709 9.99678 10.7019 9.99512 10.695H9.99813C10.0276 10.695 10.0464 10.6753 10.0677 10.6583C10.4371 10.3635 10.7731 10.031 11.07 9.66666C11.3094 9.37275 11.5173 9.05568 11.6904 8.72042C11.8933 8.32838 12.0532 7.91658 12.1674 7.49185C12.2718 7.10821 12.335 6.71503 12.356 6.31866C12.3784 5.87249 12.3507 5.42528 12.2734 4.98497C12.1516 4.30443 11.9118 3.64903 11.5644 3.04684C11.2022 2.41933 10.7227 1.88291 10.1689 1.40844C10.1211 1.36752 10.0499 1.34808 10.0392 1.27371Z" fill="#F69E20"/>
        <path d="M9.99806 10.6957C9.49486 10.3158 9.05707 9.86014 8.70116 9.34592C8.39162 8.90178 8.14611 8.41834 7.97151 7.90915C7.81498 7.44696 7.71469 6.96845 7.67269 6.48347C7.61399 5.84646 7.67524 5.21963 7.82326 4.59845C7.95288 4.05357 8.16477 3.53045 8.45199 3.04618C8.68373 2.64772 8.96332 2.27756 9.28488 1.94351C9.48205 1.73811 9.69402 1.54669 9.91917 1.37071C9.93565 1.35827 9.94237 1.33318 9.95212 1.31374L10.0001 1.28978L10.0097 1.28729L10.0391 1.27283C10.0498 1.34742 10.121 1.36664 10.1688 1.40846C10.7226 1.88316 11.2022 2.41934 11.5643 3.04685C11.9117 3.64884 12.1514 4.304 12.2733 4.98431C12.3506 5.42462 12.3783 5.87183 12.3559 6.318C12.3349 6.71438 12.2717 7.10755 12.1673 7.49119C12.0531 7.91592 11.8932 8.32772 11.6903 8.71976C11.5173 9.05525 11.3094 9.37255 11.0699 9.66668C10.773 10.0313 10.4369 10.364 10.0674 10.659C10.0463 10.676 10.0275 10.695 9.99806 10.6957Z" fill="#F16122"/>
        <path d="M9.71773 1.08971C9.72163 1.08914 9.72562 1.08989 9.72903 1.09182C9.73245 1.09375 9.73509 1.09675 9.73652 1.10034C9.75972 1.18352 9.83071 1.20545 9.90449 1.22331C9.91995 1.25345 9.93612 1.28396 9.95298 1.31486C9.9423 1.3343 9.9365 1.36007 9.92003 1.37182C9.69491 1.54752 9.48294 1.73864 9.28574 1.94372C8.96395 2.27767 8.68412 2.64775 8.45215 3.04616C8.16493 3.53044 7.95305 4.05356 7.82343 4.59843C7.67541 5.21961 7.61462 5.84577 7.67286 6.48345C7.71486 6.96844 7.81515 7.44694 7.97167 7.90914C8.14628 8.41833 8.39179 8.90176 8.70132 9.3459C9.05723 9.86012 9.49503 10.3158 9.99822 10.6956H9.9952C9.93511 10.6981 9.89822 10.7447 9.86249 10.7777C9.77248 10.8604 9.63536 10.8873 9.5776 11.0069L9.57249 11.0107C9.56404 11.0088 9.55513 11.01 9.54759 11.0142C9.54004 11.0184 9.53443 11.0253 9.53189 11.0333H9.53004C9.29316 11.0885 9.11614 11.2553 8.90061 11.3537C8.56003 11.5101 8.20878 11.6333 7.85382 11.7463C7.41301 11.8876 6.95133 11.9303 6.49196 11.9568C6.04629 11.9828 5.59922 11.9631 5.15888 11.8733C5.08394 11.858 5.0097 11.8342 4.93384 11.8281C4.70508 11.8103 4.49303 11.7303 4.27634 11.6699C4.09607 11.6193 3.92973 11.5363 3.75526 11.4726C3.54646 11.3964 3.33998 11.313 3.15623 11.1862C3.05657 11.1193 2.94705 11.0676 2.83143 11.0329L2.82888 11.0315C2.82429 11.0115 2.81515 10.9928 2.80214 10.9767C2.78913 10.9605 2.77258 10.9475 2.75371 10.9384C2.60523 10.8706 2.49526 10.7501 2.35652 10.6701C2.30594 10.6407 2.27926 10.5722 2.20479 10.5815L2.20224 10.5794C2.20224 10.536 2.16442 10.5166 2.1396 10.489C2.02221 10.3595 1.86723 10.27 1.75331 10.1364C1.6394 10.0028 1.52595 9.87621 1.38652 9.77087C1.2972 9.58823 1.16496 9.437 1.02227 9.29346L1.01949 9.28803C0.972479 9.14617 0.892442 9.01682 0.785632 8.91008C0.790924 8.87219 0.781311 8.83375 0.75872 8.80248C0.672879 8.66979 0.611631 8.52625 0.549918 8.38271C0.53855 8.35649 0.529501 8.32348 0.489829 8.32145L0.487045 8.31715C0.506069 8.22108 0.446908 8.14626 0.416052 8.06308C0.345291 7.87048 0.295411 7.67111 0.236018 7.47535C0.121409 7.0983 0.0810404 6.71357 0.0476321 6.32748C0.0181678 5.98705 0.0538961 5.64504 0.0708323 5.30438C0.0770964 5.18209 0.111201 5.06138 0.131153 4.93977C0.171317 4.70813 0.227986 4.47949 0.300747 4.25552C0.353643 4.08802 0.397956 3.91328 0.483565 3.76183C0.542493 3.65717 0.586574 3.55839 0.600958 3.44152V3.43994C0.61257 3.43966 0.6238 3.43584 0.633077 3.42903C0.642354 3.42222 0.649214 3.41276 0.652695 3.40196C0.737376 3.20598 0.872169 3.03644 0.967754 2.84724C1.01972 2.74439 1.13016 2.67386 1.13596 2.54727C1.13596 2.54094 1.13804 2.53778 1.14454 2.538C1.16171 2.5319 1.18723 2.531 1.19488 2.51902C1.26565 2.40916 1.35729 2.31557 1.43663 2.21204C1.47166 2.16683 1.53778 2.13767 1.52943 2.06556L1.53291 2.06195C1.55037 2.06154 1.56743 2.05677 1.58246 2.04811C1.59749 2.03944 1.60999 2.02716 1.61875 2.01244C1.68627 1.89512 1.80714 1.8316 1.89507 1.73508C1.9526 1.67269 2.03844 1.63291 2.06188 1.54249H2.06327C2.06938 1.54386 2.07575 1.54375 2.08181 1.54216C2.08787 1.54058 2.09344 1.53756 2.09802 1.53339C2.1026 1.52921 2.10606 1.524 2.1081 1.51822C2.11013 1.51243 2.11067 1.50625 2.10967 1.50022L2.11199 1.49818C2.23124 1.47558 2.3143 1.38877 2.39735 1.32028C2.64119 1.11865 2.90776 0.955666 3.18338 0.800371C3.32815 0.71922 3.48962 0.664742 3.61653 0.553978L3.62279 0.550135C3.78983 0.534764 3.93274 0.448866 4.08679 0.394614C4.7074 0.174895 5.34564 0.0532812 6.00615 0.0503426C6.26367 0.0503426 6.52398 0.0345191 6.77756 0.0661659C6.96084 0.0887707 7.14737 0.114766 7.33112 0.150934C7.58237 0.200439 7.83387 0.246779 8.07492 0.328834C8.34589 0.421062 8.62221 0.499501 8.87556 0.639198C8.96233 0.686895 9.05025 0.752223 9.16069 0.752223H9.16185C9.2521 0.873384 9.40267 0.910456 9.52308 0.988443C9.58038 1.0271 9.63049 1.09717 9.71773 1.08971Z" fill="#E92026"/>
        <path d="M2.83075 11.0325C2.94637 11.0672 3.0559 11.1189 3.15556 11.1857C3.3393 11.3125 3.54648 11.396 3.75459 11.4721C3.92905 11.5359 4.0954 11.6188 4.27566 11.6695C4.49305 11.7301 4.7044 11.8101 4.93316 11.8277C5.00902 11.8336 5.08326 11.8573 5.1582 11.8729C5.59901 11.9633 6.04561 11.9823 6.49129 11.9563C6.95065 11.9299 7.4121 11.8872 7.85314 11.7459C8.2081 11.6329 8.55935 11.5101 8.89993 11.3546C9.11546 11.2563 9.29248 11.0894 9.52936 11.0343C9.25095 11.2339 8.94262 11.3788 8.62733 11.5101C7.57017 11.9501 6.47203 12.0941 5.3329 11.9421C4.45799 11.8276 3.61896 11.5296 2.87367 11.0686C2.85852 11.0576 2.84418 11.0455 2.83075 11.0325Z" fill="#E92026"/>
        <path d="M0.600958 3.44152C0.586574 3.55726 0.542493 3.65717 0.483565 3.76183C0.397956 3.91328 0.353643 4.08802 0.300747 4.25552C0.227986 4.47949 0.171317 4.70813 0.131153 4.93977C0.111201 5.06138 0.0768646 5.18213 0.0703685 5.30397C0.0527364 5.64463 0.017008 5.98664 0.0471683 6.32707C0.0805767 6.71316 0.120945 7.09789 0.235554 7.47494C0.294947 7.67047 0.345291 7.87026 0.416052 8.06308C0.446908 8.14626 0.506069 8.22108 0.487045 8.31715C0.327195 7.99051 0.225114 7.64448 0.146929 7.29275C-0.105644 6.15602 -0.0298563 5.03964 0.374292 3.94361C0.437165 3.77204 0.500965 3.59862 0.600958 3.44152Z" fill="#E92026"/>
        <path d="M3.6154 0.553344C3.48849 0.664334 3.32702 0.718586 3.18225 0.799737C2.90687 0.95458 2.64006 1.11756 2.39623 1.31965C2.31317 1.38746 2.23011 1.47585 2.11086 1.49755C2.44379 1.19261 2.82265 0.950963 3.22053 0.736217C3.34813 0.667047 3.47504 0.595841 3.6154 0.553344Z" fill="#E92026"/>
        <path d="M1.38582 9.7707C1.52502 9.87604 1.64103 10.0049 1.75262 10.1362C1.86421 10.2676 2.02151 10.3593 2.1389 10.4889C2.16373 10.5162 2.20085 10.5356 2.20154 10.5793C1.89272 10.3476 1.61822 10.0755 1.38582 9.7707Z" fill="#E92026"/>
        <path d="M1.13596 2.54727C1.13132 2.67386 1.01995 2.74439 0.967754 2.84724C0.872169 3.03644 0.737376 3.20598 0.652695 3.40196C0.649214 3.41276 0.642354 3.42222 0.633077 3.42903C0.6238 3.43584 0.61257 3.43966 0.600958 3.43994C0.738071 3.11895 0.924601 2.82599 1.13596 2.54727Z" fill="#E92026"/>
        <path d="M2.20411 10.581C2.27858 10.5718 2.30526 10.6403 2.35584 10.6696C2.49504 10.7497 2.60455 10.8699 2.75303 10.938C2.7719 10.947 2.78845 10.9601 2.80146 10.9762C2.81447 10.9923 2.82361 11.0111 2.8282 11.0311C2.60292 10.9052 2.39348 10.7542 2.20411 10.581Z" fill="#E92026"/>
        <path d="M2.06118 1.54253C2.03798 1.63295 1.95191 1.67274 1.89437 1.73512C1.80644 1.83097 1.68557 1.89517 1.61805 2.01249C1.60929 2.0272 1.59679 2.03948 1.58176 2.04815C1.56673 2.05682 1.54967 2.06158 1.53221 2.06199C1.68678 1.86902 1.86434 1.69464 2.06118 1.54253Z" fill="#E92026"/>
        <path d="M0.488687 8.32126C0.528359 8.32329 0.537407 8.3563 0.548775 8.38252C0.610952 8.52606 0.672201 8.6696 0.757578 8.80229C0.780169 8.83356 0.789783 8.872 0.784491 8.90989C0.662348 8.72577 0.563053 8.52818 0.488687 8.32126Z" fill="#E92026"/>
        <path d="M1.02227 9.29346C1.16496 9.437 1.2972 9.58732 1.38652 9.77087C1.24464 9.62757 1.12222 9.46712 1.02227 9.29346Z" fill="#E92026"/>
        <path d="M1.52875 2.0656C1.53803 2.13771 1.47191 2.16709 1.43595 2.21208C1.35568 2.3147 1.26497 2.40919 1.19421 2.51905C1.18655 2.53103 1.16103 2.53194 1.14386 2.53804C1.25356 2.36699 1.38267 2.20851 1.52875 2.0656Z" fill="#E92026"/>
        <path d="M9.5776 11.0069C9.63536 10.8873 9.77248 10.8604 9.86249 10.7777C9.89822 10.7447 9.93511 10.6981 9.9952 10.6956C9.99686 10.7026 9.99771 10.7095 9.99774 10.7167C9.86294 10.8207 9.73118 10.9285 9.5776 11.0069Z" fill="#E92026"/>
        <path d="M1.01949 9.28803C0.972479 9.14617 0.892442 9.01682 0.785632 8.91008C0.84535 9.04595 0.924047 9.17314 1.01949 9.28803Z" fill="#E92026"/>
        <path d="M10.0003 1.29071L9.95229 1.31468C9.93683 1.28454 9.92067 1.25402 9.90381 1.22313L10.0019 1.28506L10.0003 1.29071Z" fill="#E92026"/>
        <path d="M2.10853 1.49915C2.10953 1.50518 2.10899 1.51137 2.10695 1.51715C2.10492 1.52293 2.10146 1.52814 2.09688 1.53232C2.0923 1.53649 2.08673 1.53951 2.08067 1.54109C2.07461 1.54268 2.06824 1.54279 2.06213 1.54142C2.06422 1.53047 2.06986 1.52047 2.07821 1.51286C2.08655 1.50526 2.09718 1.50045 2.10853 1.49915Z" fill="#E92026"/>
    </g>
    <defs>
        <clipPath id="clip0">
            <rect width="20" height="12" fill="white"/>
        </clipPath>
    </defs>
</svg>
