<svg width="16" height="14" viewBox="0 0 16 14" fill="none" xmlns="http://www.w3.org/2000/svg">
    <path d="M16 13.4167C16 13.5714 15.9438 13.7197 15.8438 13.8291C15.7438 13.9385 15.6081 14 15.4667 14H0.533333C0.391884 14 0.256229 13.9385 0.15621 13.8291C0.0561903 13.7197 0 13.5714 0 13.4167C0 13.262 0.0561903 13.1136 0.15621 13.0042C0.256229 12.8948 0.391884 12.8333 0.533333 12.8333H15.4667C15.6081 12.8333 15.7438 12.8948 15.8438 13.0042C15.9438 13.1136 16 13.262 16 13.4167ZM0.553516 5.40886C0.521873 5.28665 0.527571 5.15648 0.569745 5.03814C0.611919 4.91979 0.688263 4.81974 0.787175 4.75318L7.72051 0.0865172C7.80456 0.02995 7.90131 0 8 0C8.09869 0 8.19544 0.02995 8.27949 0.0865172L15.2128 4.75318C15.3117 4.81975 15.3881 4.9198 15.4302 5.03814C15.4724 5.15648 15.4781 5.28663 15.4465 5.40885C15.4149 5.53106 15.3476 5.63864 15.255 5.71525C15.1624 5.79187 15.0495 5.83333 14.9333 5.83333H13.3333V10.5H14.4C14.5414 10.5 14.6771 10.5615 14.7771 10.6709C14.8771 10.7802 14.9333 10.9286 14.9333 11.0833C14.9333 11.238 14.8771 11.3864 14.7771 11.4958C14.6771 11.6052 14.5414 11.6667 14.4 11.6667H1.6C1.45855 11.6667 1.3229 11.6052 1.22288 11.4958C1.12286 11.3864 1.06667 11.238 1.06667 11.0833C1.06667 10.9286 1.12286 10.7802 1.22288 10.6709C1.3229 10.5615 1.45855 10.5 1.6 10.5H2.66667V5.83333H1.06667C0.950543 5.83334 0.837591 5.79189 0.744973 5.71527C0.652354 5.63866 0.58513 5.53108 0.553516 5.40886ZM9.06667 9.91667C9.06667 10.0714 9.12286 10.2197 9.22288 10.3291C9.3229 10.4385 9.45855 10.5 9.6 10.5C9.74145 10.5 9.8771 10.4385 9.97712 10.3291C10.0771 10.2197 10.1333 10.0714 10.1333 9.91667V6.41667C10.1333 6.26196 10.0771 6.11358 9.97712 6.00419C9.8771 5.89479 9.74145 5.83333 9.6 5.83333C9.45855 5.83333 9.3229 5.89479 9.22288 6.00419C9.12286 6.11358 9.06667 6.26196 9.06667 6.41667V9.91667ZM5.86667 9.91667C5.86667 10.0714 5.92286 10.2197 6.02288 10.3291C6.1229 10.4385 6.25855 10.5 6.4 10.5C6.54145 10.5 6.6771 10.4385 6.77712 10.3291C6.87714 10.2197 6.93333 10.0714 6.93333 9.91667V6.41667C6.93333 6.26196 6.87714 6.11358 6.77712 6.00419C6.6771 5.89479 6.54145 5.83333 6.4 5.83333C6.25855 5.83333 6.1229 5.89479 6.02288 6.00419C5.92286 6.11358 5.86667 6.26196 5.86667 6.41667V9.91667Z" fill="white"/>
</svg>
