<svg width="44" height="44" viewBox="0 0 44 44" fill="none" xmlns="http://www.w3.org/2000/svg">
    <rect width="44" height="44" rx="22" fill="#02607D"/>
    <path fill-rule="evenodd" clip-rule="evenodd" d="M25.006 28.0984H28.5745C29.1225 28.0975 29.6207 27.8187 29.9076 27.3515C30.1941 26.8848 30.2188 26.3145 29.9733 25.8273L28.8286 23.5379V20.4725C28.8492 18.5385 28.1274 16.7013 26.7952 15.2988C25.4617 13.895 23.6618 13.0793 21.7274 13.0017C21.7245 13.0017 21.7214 13.0016 21.7183 13.0015C21.7152 13.0014 21.7121 13.0013 21.7092 13.0013C19.7729 12.9648 17.8691 13.7212 16.4872 15.0776C15.1048 16.4339 14.3123 18.3223 14.3128 20.259V23.5374L13.169 25.825C12.9226 26.3145 12.9468 26.8848 13.2338 27.352C13.5212 27.8187 14.0194 28.0975 14.5683 28.0984H18.1362C18.3086 29.1106 18.9246 30.0123 19.829 30.5346C20.366 30.8449 20.9687 31 21.5709 31C22.1731 31 22.7758 30.8449 23.3132 30.5346C24.2176 30.0123 24.8337 29.1106 25.006 28.0984ZM19.9294 28.0984H23.2124C23.076 28.4839 22.8054 28.8165 22.4418 29.0263C21.9044 29.3366 21.2369 29.3366 20.7 29.0263C20.3363 28.8165 20.0663 28.4839 19.9294 28.0984ZM24.1839 26.3565H28.2907L27.1789 24.1333C27.1182 24.0124 27.0868 23.8792 27.0868 23.7437V20.4688V20.4588C27.1036 18.9788 26.5516 17.5722 25.5324 16.4992C24.515 15.428 23.1422 14.8047 21.6667 14.7436C20.1972 14.7171 18.7555 15.2929 17.7071 16.3217C16.6564 17.3528 16.0542 18.7881 16.0542 20.2599V23.7441C16.0542 23.8792 16.0227 24.0128 15.962 24.1337L14.8511 26.3565H18.9583C18.968 26.3562 18.9776 26.356 18.9873 26.356H24.155C24.1647 26.356 24.1743 26.3562 24.1839 26.3565Z" fill="white"/>
</svg>
