<svg width="44" height="44" viewBox="0 0 44 44" fill="none" xmlns="http://www.w3.org/2000/svg">
    <rect width="44" height="44" rx="22" fill="#02607D"/>
    <path fill-rule="evenodd" clip-rule="evenodd" d="M26.6641 19.1438C26.6555 19.1438 26.6468 19.1437 26.6383 19.1434H16.9902C16.9816 19.1437 16.9729 19.1438 16.9641 19.1438V19.1438C16.2214 19.1438 15.6167 19.7481 15.6167 20.4913V28.0363C15.6167 28.7794 16.221 29.3837 16.9641 29.3837H26.665C27.4077 29.3837 28.0124 28.779 28.0124 28.0363V20.4908C28.0124 19.7551 27.4194 19.1548 26.6858 19.1436L26.6641 19.1438ZM25.702 14.5325C26.5865 15.3623 27.1719 16.4391 27.389 17.6161C28.6747 17.94 29.6291 19.106 29.6291 20.4908V28.0359C29.6287 29.6704 28.299 31 26.665 31H16.9641C15.3296 31 14 29.6704 14 28.0359V20.4908C14 19.1022 14.9597 17.9336 16.2508 17.6135C16.7766 14.9417 19.0651 13 21.8143 13C23.2676 13 24.6485 13.5441 25.702 14.5325ZM25.7079 17.5267H17.9368C18.4509 15.8187 19.9912 14.6167 21.8148 14.6167C23.6479 14.6167 25.2175 15.8402 25.7079 17.5267ZM20.7371 25.3419C20.7371 25.9347 21.2219 26.4195 21.8148 26.4195C22.4076 26.4195 22.8924 25.9347 22.8924 25.3419V23.1861C22.8924 22.5933 22.4076 22.1084 21.8148 22.1084C21.2219 22.1084 20.7371 22.5933 20.7371 23.1861V25.3419Z" fill="white"/>
</svg>
