<svg width="44" height="44" viewBox="0 0 44 44" fill="none" xmlns="http://www.w3.org/2000/svg">
    <rect width="44" height="44" rx="22" fill="#02607D"/>
    <path fill-rule="evenodd" clip-rule="evenodd" d="M21.5611 31C20.8317 31 20.1023 30.8339 19.4377 30.502L14.6241 28.095L14.6139 28.0898L14.6038 28.0846C13.8235 27.6893 13.1689 27.0878 12.7092 26.344C12.2454 25.5929 12 24.7298 12 23.8482V18.4556C11.9978 17.4686 12.3057 16.5244 12.8911 15.7275C13.4755 14.9315 14.2819 14.3556 15.2234 14.0607C17.2751 13.402 19.4084 13.0454 21.5633 13.0003C21.5755 12.9999 21.5876 12.9999 21.5998 13.0003C23.7479 13.0467 25.8745 13.4033 27.9209 14.0602C28.8497 14.3506 29.6786 14.9427 30.2545 15.7271C30.8394 16.5244 31.1474 17.4682 31.1456 18.4569V23.8473C31.1442 24.7298 30.8984 25.5916 30.4346 26.3408C29.9713 27.0896 29.3099 27.6943 28.522 28.0887C28.5197 28.09 28.5175 28.0909 28.5152 28.0923L23.684 30.502C23.0194 30.8339 22.2905 31 21.5611 31ZM15.4111 26.5664L20.2067 28.964C21.055 29.3877 22.0681 29.3877 22.9168 28.964L27.7538 26.5515L27.7545 26.5512C27.7549 26.551 27.7552 26.5508 27.7556 26.5507C27.7557 26.5506 27.7559 26.5506 27.7561 26.5506C28.2572 26.2989 28.6782 25.914 28.9731 25.4367C29.2689 24.9585 29.4261 24.4088 29.427 23.8464V18.4556C29.4283 17.8347 29.2356 17.2435 28.8691 16.7446C28.508 16.2529 27.9884 15.8819 27.4062 15.7005C27.4044 15.6998 27.4024 15.6993 27.4005 15.6987C27.4 15.6986 27.3995 15.6984 27.399 15.6982C25.5156 15.0931 23.5588 14.764 21.5818 14.7194C19.5984 14.7622 17.6358 15.0913 15.7479 15.6982L15.7443 15.6994L15.7407 15.7005C15.15 15.8846 14.6439 16.2457 14.2774 16.7446C13.9113 17.2435 13.7186 17.8347 13.72 18.4538V23.8478C13.72 24.4106 13.8767 24.9612 14.1725 25.4403C14.4683 25.9189 14.8906 26.3052 15.394 26.5574C15.3972 26.5593 15.4007 26.561 15.4041 26.5628L15.4111 26.5664ZM19.0712 21.5731C18.851 21.5731 18.6313 21.4894 18.4634 21.3214C18.1275 20.9855 18.1275 20.4416 18.4634 20.1057L19.7587 18.8104C20.0946 18.4745 20.6385 18.4745 20.9744 18.8104C21.3103 19.1463 21.3103 19.6902 20.9744 20.026L19.679 21.3214C19.5115 21.4889 19.2914 21.5731 19.0712 21.5731ZM19.942 25.0806C20.1099 25.2485 20.3296 25.3322 20.5498 25.3322C20.77 25.3322 20.9897 25.248 21.1577 25.0806L25.0717 21.1665C25.4076 20.8306 25.4076 20.2867 25.0717 19.9509C24.7358 19.615 24.1919 19.615 23.856 19.9509L19.942 23.8649C19.6061 24.2008 19.6061 24.7447 19.942 25.0806Z" fill="white"/>
</svg>
